<svg id="Layer_1" data-name="Layer 1" xmlns="http://www.w3.org/2000/svg" xmlns:xlink="http://www.w3.org/1999/xlink" viewBox="0 0 560.95 513.47"><defs><style>.cls-1{fill:none;}.cls-2{clip-path:url(#clip-path);}.cls-3{fill:#50b58c;}</style><clipPath id="clip-path"><rect class="cls-1" width="560.95" height="513.47"/></clipPath></defs><g class="cls-2"><path class="cls-3" d="M469.4,18.93a1.89,1.89,0,0,0-1.92-1.87L455,17.22A1.89,1.89,0,0,0,455,21h0l12.53-.15A1.9,1.9,0,0,0,469.4,18.93Z"/><path class="cls-3" d="M456.23,42.36A1.9,1.9,0,0,0,455,44.72l3.57,12a1.9,1.9,0,0,0,1.82,1.36,2,2,0,0,0,.54-.08,1.89,1.89,0,0,0,1.27-2.35l-3.57-12A1.89,1.89,0,0,0,456.23,42.36Z"/><path class="cls-3" d="M554.68,19.09a1.88,1.88,0,0,0-1.27,2.35l3.57,12a1.89,1.89,0,0,0,1.81,1.35,1.68,1.68,0,0,0,.54-.08,1.89,1.89,0,0,0,1.28-2.35l-3.57-12A1.89,1.89,0,0,0,554.68,19.09Z"/><path class="cls-3" d="M526.85,59.1a2,2,0,0,0,.54-.08,1.89,1.89,0,0,0,1.28-2.36l-3.57-12a1.89,1.89,0,1,0-3.63,1.08l3.57,12A1.89,1.89,0,0,0,526.85,59.1Z"/><path class="cls-3" d="M574.2,90.49a1.89,1.89,0,0,0-2-1.79l-12.51.68a1.89,1.89,0,0,0,.1,3.78h.1l12.51-.68A1.9,1.9,0,0,0,574.2,90.49Z"/><path class="cls-3" d="M445,75a1.85,1.85,0,0,0,.21,1.63c7.19,11,16.13,16.53,26.67,16.53a37.42,37.42,0,0,0,12.37-2.28,1.9,1.9,0,0,0,1.09-1,.9.9,0,0,0,.16,0,1.9,1.9,0,0,0,1.21-1c7-15.5,3.36-29-10.79-40.14a1.87,1.87,0,0,0-1.61-.35,1.89,1.89,0,0,0-1.28,1c-5,10.77-3.58,19.7-.75,26.05-6.08-3.42-14.89-5.7-26.14-1.6A1.88,1.88,0,0,0,445,75Z"/><path class="cls-3" d="M536.21,3.16a1.87,1.87,0,0,0-.7,1.49,1.91,1.91,0,0,0,.72,1.48q10.95,8.58,21.69,8.58c6.72,0,13.36-2.54,19.86-7.62a1.91,1.91,0,0,0,.73-1.42,1.55,1.55,0,0,0,0-.22,1.89,1.89,0,0,0,.7-1.33c1.31-16.95-6.69-28.42-23.79-34.07a1.91,1.91,0,0,0-1.63.21,1.88,1.88,0,0,0-.85,1.42c-1,11.63,3.18,19.47,7.9,24.48C554.06-5,545.26-4.1,536.21,3.16Z"/><path class="cls-3" d="M489.12,104.24a1.93,1.93,0,0,0-1.35-.95,1.87,1.87,0,0,0-1.58.46c-8.61,7.76-10.88,16.31-10.86,23.17a32.53,32.53,0,0,0,.33,4.46c0,.25.07.49.11.73a37.22,37.22,0,0,0,.82,3.72l-11.06-11.06q-.28-1.72-.66-3.36c-3.75-16.34-14.33-25.84-31.47-28.24a1.91,1.91,0,0,0-2.16,1.89c0,.07,0,.15,0,.22a60.68,60.68,0,0,0,1.06,6.08c4.37,19.11,16.53,23.53,25.38,25.24l.12,0h0c1.37.26,2.67.46,3.83.64l1.17.18,11.06,11a38.09,38.09,0,0,0-4.44-.93c-7.34-1-18.09-.07-27.63,10.54a1.89,1.89,0,0,0,.49,2.92q9.69,5.34,18.39,5.34c7.79,0,14.95-3.22,21.41-9.65L504.38,169a39.68,39.68,0,0,0-14.33-1.74c-10,.78-18.75,6.4-26,16.69a1.89,1.89,0,0,0,.84,2.85A48.06,48.06,0,0,0,483,190.65c10.93,0,20.55-4.81,28.72-14.39l8,8a1.89,1.89,0,0,0,2.68-2.67l-8-8c14.55-12.42,18.09-28.15,10.5-46.8a1.86,1.86,0,0,0-1.22-1.1A1.9,1.9,0,0,0,522,126c-10.29,7.25-15.91,16-16.7,26a39.76,39.76,0,0,0,1.75,14.34L484.8,144C496,132.78,497.47,119.4,489.12,104.24Z"/><path class="cls-3" d="M469.4,167.59a1.89,1.89,0,0,0-1.89-1.87h0l-12.52.16a1.9,1.9,0,0,0,0,3.79h0l12.52-.16A1.9,1.9,0,0,0,469.4,167.59Z"/><path class="cls-3" d="M456.23,191a1.9,1.9,0,0,0-1.28,2.36l3.57,12a1.9,1.9,0,0,0,1.82,1.35,1.68,1.68,0,0,0,.54-.08,1.89,1.89,0,0,0,1.27-2.35l-3.57-12A1.89,1.89,0,0,0,456.23,191Z"/><path class="cls-3" d="M558.79,183.47a2,2,0,0,0,.54-.08,1.9,1.9,0,0,0,1.28-2.36L557,169a1.89,1.89,0,0,0-3.63,1.08l3.57,12A1.9,1.9,0,0,0,558.79,183.47Z"/><path class="cls-3" d="M522.74,192a1.89,1.89,0,0,0-1.27,2.36l3.57,12a1.89,1.89,0,0,0,1.81,1.35,2,2,0,0,0,.54-.08,1.89,1.89,0,0,0,1.28-2.35l-3.57-12A1.9,1.9,0,0,0,522.74,192Z"/><path class="cls-3" d="M574.2,239.15a1.91,1.91,0,0,0-2-1.79l-12.5.68a1.89,1.89,0,0,0,.1,3.78h.1l12.51-.68A1.9,1.9,0,0,0,574.2,239.15Z"/><path class="cls-3" d="M504,135.66a1.89,1.89,0,0,0,1.89-1.87l.16-12.52a1.9,1.9,0,0,0-1.87-1.92h0a1.89,1.89,0,0,0-1.89,1.87l-.16,12.52a1.9,1.9,0,0,0,1.87,1.92Z"/><path class="cls-3" d="M445,223.67a1.87,1.87,0,0,0,.21,1.64c7.19,11,16.13,16.52,26.67,16.52a37.42,37.42,0,0,0,12.37-2.28,1.88,1.88,0,0,0,1.09-1l.16,0a1.9,1.9,0,0,0,1.21-1c7-15.5,3.36-29-10.79-40.14a1.9,1.9,0,0,0-2.89.69c-5,10.77-3.58,19.7-.75,26.05-6.08-3.42-14.89-5.7-26.14-1.6A1.88,1.88,0,0,0,445,223.67Z"/><path class="cls-3" d="M541,137.44a1.89,1.89,0,1,0,3.37-1.73L539,125.2a1.88,1.88,0,0,0-2.54-.82,1.91,1.91,0,0,0-.83,2.55Z"/><path class="cls-3" d="M555.41,118.71a1.91,1.91,0,0,0-1.63.21,1.88,1.88,0,0,0-.85,1.42c-1,11.63,3.18,19.47,7.9,24.49-6.77-1.12-15.57-.27-24.62,7a1.87,1.87,0,0,0-.7,1.49,1.9,1.9,0,0,0,.72,1.48q10.95,8.58,21.69,8.58c6.72,0,13.36-2.54,19.86-7.62a1.88,1.88,0,0,0,.73-1.42,1.62,1.62,0,0,0,0-.22,1.87,1.87,0,0,0,.7-1.32C580.51,135.83,572.51,124.37,555.41,118.71Z"/><path class="cls-3" d="M595.8,17.41a1.93,1.93,0,0,0-1.58-.55c-27.88,3.44-30.55,21-32,30.43q-.09.62-.18,1.17L551,59.52a34.37,34.37,0,0,0,.93-4.44C553,47.74,552,37,541.39,27.44a1.91,1.91,0,0,0-2.93.5c-8.35,15.15-6.89,28.53,4.32,39.8L520.52,90a39.64,39.64,0,0,0,1.75-14.32c-.79-10-6.41-18.76-16.7-26a1.9,1.9,0,0,0-2.85.84c-7.58,18.64-4,34.38,10.51,46.79l-8,8a1.9,1.9,0,0,0,0,2.68,1.91,1.91,0,0,0,2.68,0l8-8c8.17,9.58,17.78,14.39,28.72,14.39a48.09,48.09,0,0,0,18.07-3.89,1.88,1.88,0,0,0,1.11-1.22,1.9,1.9,0,0,0-.27-1.62c-7.26-10.29-16-15.91-26-16.7a39.76,39.76,0,0,0-14.34,1.75l22.26-22.25c6.46,6.42,13.62,9.64,21.41,9.64q8.68,0,18.39-5.33a1.9,1.9,0,0,0,1-1.35,1.87,1.87,0,0,0-.46-1.58c-9.54-10.6-20.29-11.58-27.63-10.53a34.37,34.37,0,0,0-4.44.93l11.05-11.06c18.41-3,29-13.85,31.6-32.13A1.92,1.92,0,0,0,595.8,17.41Z"/><path class="cls-3" d="M489.12,252.91a1.92,1.92,0,0,0-1.35-1l-.21,0a1.88,1.88,0,0,0-1.37.48c-8.61,7.76-10.88,16.31-10.86,23.18a32.38,32.38,0,0,0,.33,4.45,35.91,35.91,0,0,0,.93,4.45l-11.06-11.06c-3-18.4-13.84-29-32.13-31.59a1.87,1.87,0,0,0-1.59.52,1.89,1.89,0,0,0-.57,1.36c0,.08,0,.15,0,.22a57.63,57.63,0,0,0,1.82,9c4.91,16.67,16.29,20.7,24.68,22.31h.06l.12,0c1.34.25,2.61.44,3.75.62l1.17.18,11.06,11.06a36.1,36.1,0,0,0-4.44-.94c-7.34-1-18.09-.07-27.63,10.54a1.89,1.89,0,0,0,.49,2.92Q452,305,460.72,305c7.79,0,14.95-3.22,21.41-9.65l22.25,22.26a39.45,39.45,0,0,0-14.33-1.75c-10,.78-18.75,6.4-26,16.69a1.89,1.89,0,0,0,.84,2.85A48.06,48.06,0,0,0,483,339.31c10.94,0,20.55-4.81,28.72-14.38l8,8a1.91,1.91,0,0,0,2.68,0,1.9,1.9,0,0,0,0-2.68l-8-8c14.55-12.42,18.09-28.15,10.5-46.8a1.86,1.86,0,0,0-1.22-1.1,1.9,1.9,0,0,0-1.62.27c-10.29,7.26-15.91,16-16.7,26A39.76,39.76,0,0,0,507.06,315L484.8,292.7C496,281.44,497.47,268.06,489.12,252.91Z"/><path class="cls-3" d="M469.4,316.25a1.89,1.89,0,0,0-1.89-1.87h0l-12.52.16a1.9,1.9,0,0,0,0,3.79h0l12.53-.16A1.9,1.9,0,0,0,469.4,316.25Z"/><path class="cls-3" d="M456.23,339.68A1.9,1.9,0,0,0,455,342l3.57,12a1.9,1.9,0,0,0,1.82,1.35,1.68,1.68,0,0,0,.54-.08,1.88,1.88,0,0,0,1.27-2.35l-3.57-12A1.9,1.9,0,0,0,456.23,339.68Z"/><path class="cls-3" d="M558.79,332.13a2,2,0,0,0,.54-.08,1.9,1.9,0,0,0,1.28-2.36l-3.57-12a1.89,1.89,0,1,0-3.63,1.07l3.57,12A1.89,1.89,0,0,0,558.79,332.13Z"/><path class="cls-3" d="M522.74,340.7a1.9,1.9,0,0,0-1.27,2.36l3.57,12a1.89,1.89,0,0,0,1.81,1.35,1.68,1.68,0,0,0,.54-.08,1.89,1.89,0,0,0,1.28-2.35l-3.57-12A1.91,1.91,0,0,0,522.74,340.7Z"/><path class="cls-3" d="M574.2,387.81a1.91,1.91,0,0,0-2-1.79l-12.5.68a1.89,1.89,0,0,0,.1,3.78h.1l12.51-.68A1.9,1.9,0,0,0,574.2,387.81Z"/><path class="cls-3" d="M504,284.32a1.89,1.89,0,0,0,1.89-1.87l.16-12.52a1.9,1.9,0,0,0-1.87-1.92,1.88,1.88,0,0,0-1.92,1.87l-.16,12.53a1.9,1.9,0,0,0,1.87,1.91Z"/><path class="cls-3" d="M471.92,390.49a37.4,37.4,0,0,0,12.37-2.27,1.93,1.93,0,0,0,1.09-1l.16,0a1.9,1.9,0,0,0,1.21-1c7-15.5,3.36-29-10.79-40.13a1.89,1.89,0,0,0-2.89.68c-5,10.77-3.58,19.7-.75,26.05-6.08-3.42-14.89-5.7-26.14-1.6a1.91,1.91,0,0,0-1.14,1.18,1.87,1.87,0,0,0,.21,1.64C452.44,385,461.38,390.49,471.92,390.49Z"/><path class="cls-3" d="M541,286.1a1.89,1.89,0,1,0,3.37-1.73L539,273.86a1.88,1.88,0,0,0-2.54-.82,1.91,1.91,0,0,0-.83,2.55Z"/><path class="cls-3" d="M555.41,267.37a1.88,1.88,0,0,0-1.63.22,1.85,1.85,0,0,0-.85,1.41c-1,11.63,3.18,19.47,7.9,24.49-6.77-1.12-15.57-.27-24.62,7a1.87,1.87,0,0,0-.7,1.49,1.9,1.9,0,0,0,.72,1.48Q547.18,312,557.92,312c6.72,0,13.36-2.54,19.86-7.62a1.88,1.88,0,0,0,.73-1.42,1.62,1.62,0,0,0,0-.22,1.85,1.85,0,0,0,.7-1.32C580.51,284.49,572.51,273,555.41,267.37Z"/><path class="cls-3" d="M562.23,196c-.06.41-.12.8-.18,1.18L551,208.18a34.37,34.37,0,0,0,.93-4.44c1.05-7.34.07-18.09-10.53-27.63a1.9,1.9,0,0,0-2.93.49c-8.35,15.16-6.89,28.53,4.32,39.8l-22.26,22.25a39.64,39.64,0,0,0,1.75-14.32c-.79-10-6.41-18.76-16.7-26a1.9,1.9,0,0,0-2.85.84c-7.58,18.65-4,34.38,10.51,46.79l-8,8a1.9,1.9,0,0,0,0,2.68,1.91,1.91,0,0,0,2.68,0l8-8c8.17,9.58,17.78,14.39,28.72,14.39a48.06,48.06,0,0,0,18.07-3.88,1.9,1.9,0,0,0,.84-2.85c-7.26-10.29-16-15.91-26-16.7a40,40,0,0,0-14.34,1.75l22.26-22.25c6.46,6.43,13.62,9.65,21.41,9.65q8.68,0,18.39-5.34a1.9,1.9,0,0,0,.49-2.93c-9.54-10.6-20.29-11.58-27.63-10.53a36.13,36.13,0,0,0-4.44.93l11.05-11.06c18.41-3,29-13.84,31.6-32.13a1.91,1.91,0,0,0-.52-1.59,1.87,1.87,0,0,0-1.58-.55C566.34,169,563.67,186.52,562.23,196Z"/><path class="cls-3" d="M511.67,473.59l8,8a1.91,1.91,0,0,0,2.68,0,1.9,1.9,0,0,0,0-2.68l-8-8c14.55-12.41,18.09-28.15,10.5-46.79a1.85,1.85,0,0,0-1.22-1.11,1.9,1.9,0,0,0-1.62.27c-10.29,7.26-15.91,16-16.7,26a39.7,39.7,0,0,0,1.75,14.33L484.8,441.36c11.21-11.26,12.67-24.64,4.32-39.79a1.91,1.91,0,0,0-2.93-.5c-10.6,9.55-11.58,20.3-10.53,27.63a35.91,35.91,0,0,0,.93,4.45l-11.06-11.06c-3-18.4-13.84-29-32.13-31.59a1.9,1.9,0,0,0-2.15,2.1c3.44,27.88,21,30.55,30.44,32l1.16.18,11.06,11.06a34.37,34.37,0,0,0-4.44-.93c-7.34-1-18.09-.08-27.63,10.53a1.9,1.9,0,0,0,.49,2.93q9.69,5.34,18.39,5.33c7.79,0,14.95-3.22,21.41-9.65l22.25,22.26a39.67,39.67,0,0,0-14.33-1.75c-10,.79-18.75,6.4-26,16.7a1.9,1.9,0,0,0-.27,1.62,1.88,1.88,0,0,0,1.11,1.22A48.09,48.09,0,0,0,483,488C493.88,488,503.5,483.17,511.67,473.59Z"/><path class="cls-3" d="M469.4,464.91a1.91,1.91,0,0,0-1.92-1.87L455,463.2a1.9,1.9,0,0,0,0,3.79h0l12.53-.16A1.89,1.89,0,0,0,469.4,464.91Z"/><path class="cls-3" d="M456.23,488.35A1.89,1.89,0,0,0,455,490.7l3.57,12a1.9,1.9,0,0,0,1.82,1.35,2,2,0,0,0,.54-.07,1.9,1.9,0,0,0,1.27-2.36l-3.57-12A1.89,1.89,0,0,0,456.23,488.35Z"/><path class="cls-3" d="M554.68,465.07a1.89,1.89,0,0,0-1.27,2.36l3.57,12a1.89,1.89,0,0,0,1.81,1.35,2,2,0,0,0,.54-.08,1.89,1.89,0,0,0,1.28-2.35l-3.57-12A1.89,1.89,0,0,0,554.68,465.07Z"/><path class="cls-3" d="M525,503.73a1.89,1.89,0,0,0,1.81,1.35,1.68,1.68,0,0,0,.54-.08,1.88,1.88,0,0,0,1.28-2.35l-3.57-12a1.89,1.89,0,0,0-3.63,1.08Z"/><path class="cls-3" d="M504,433a1.9,1.9,0,0,0,1.89-1.87l.16-12.53a1.9,1.9,0,0,0-1.87-1.92h0a1.89,1.89,0,0,0-1.89,1.87l-.16,12.53a1.91,1.91,0,0,0,1.87,1.92Z"/><path class="cls-3" d="M471.92,539.16a37.42,37.42,0,0,0,12.37-2.28,1.93,1.93,0,0,0,1.09-1l.16,0a1.94,1.94,0,0,0,1.21-1.05c7-15.49,3.36-29-10.79-40.13a1.89,1.89,0,0,0-2.89.69c-5,10.77-3.58,19.69-.75,26-6.08-3.42-14.89-5.7-26.14-1.59a1.89,1.89,0,0,0-.93,2.81C452.44,533.63,461.38,539.16,471.92,539.16Z"/><path class="cls-3" d="M537.53,536.91a39.76,39.76,0,0,0-14.34,1.75l22.26-22.26c6.46,6.43,13.62,9.65,21.41,9.65q8.68,0,18.39-5.34a1.89,1.89,0,0,0,.49-2.92c-9.54-10.61-20.29-11.59-27.63-10.54a36.67,36.67,0,0,0-4.45.94l11.06-11.06c18.41-3,29-13.85,31.6-32.14a1.88,1.88,0,0,0-2.1-2.14c-27.88,3.43-30.55,21-32,30.43q-.09.6-.18,1.17L551,505.5a34.37,34.37,0,0,0,.93-4.44c1.05-7.33.07-18.08-10.53-27.63a1.9,1.9,0,0,0-2.93.5c-8.35,15.15-6.89,28.53,4.32,39.79L520.52,536a39.73,39.73,0,0,0,1.75-14.33c-.79-10-6.41-18.75-16.7-26a1.9,1.9,0,0,0-2.85.83c-7.58,18.65-4,34.38,10.51,46.8l-8,8a1.9,1.9,0,0,0,1.34,3.23,1.9,1.9,0,0,0,1.34-.56l8-8c8.17,9.59,17.78,14.39,28.72,14.39a48.06,48.06,0,0,0,18.07-3.88,1.89,1.89,0,0,0,.84-2.85C556.28,543.31,547.53,537.7,537.53,536.91Z"/><path class="cls-3" d="M542.7,435.79a1.79,1.79,0,0,0,.86-.21,1.88,1.88,0,0,0,.82-2.54L539,422.53a1.89,1.89,0,1,0-3.37,1.72L541,434.76A1.89,1.89,0,0,0,542.7,435.79Z"/><path class="cls-3" d="M579.2,450.11c1.31-16.95-6.69-28.42-23.79-34.08a1.88,1.88,0,0,0-1.63.22,1.85,1.85,0,0,0-.85,1.41c-1,11.63,3.18,19.47,7.9,24.49-6.77-1.12-15.57-.26-24.62,7a1.85,1.85,0,0,0-.7,1.48,1.9,1.9,0,0,0,.72,1.48q10.95,8.58,21.68,8.58c6.73,0,13.37-2.54,19.87-7.62a1.88,1.88,0,0,0,.73-1.42,1.7,1.7,0,0,0,0-.22A1.85,1.85,0,0,0,579.2,450.11Z"/><path class="cls-3" d="M562.23,344.62q-.09.6-.18,1.17l-11.06,11a34.37,34.37,0,0,0,.93-4.44c1.05-7.34.07-18.09-10.53-27.63a1.87,1.87,0,0,0-1.58-.46,1.93,1.93,0,0,0-1.35.95c-8.35,15.16-6.89,28.54,4.32,39.8l-22.26,22.25A39.64,39.64,0,0,0,522.27,373c-.79-10-6.41-18.75-16.7-26a1.87,1.87,0,0,0-1.62-.27,1.9,1.9,0,0,0-1.23,1.1c-7.58,18.65-4,34.38,10.51,46.8l-8,8a1.9,1.9,0,1,0,2.68,2.68l8-8c8.17,9.58,17.78,14.39,28.72,14.39a48.06,48.06,0,0,0,18.07-3.88,1.89,1.89,0,0,0,.84-2.85c-7.26-10.29-16-15.91-26-16.69A39.54,39.54,0,0,0,523.19,390l22.26-22.26c6.46,6.43,13.62,9.65,21.41,9.65q8.68,0,18.39-5.34a1.89,1.89,0,0,0,.49-2.92c-9.54-10.61-20.29-11.59-27.63-10.54a38.09,38.09,0,0,0-4.44.93l11.05-11c18.41-3,29-13.85,31.6-32.14a1.88,1.88,0,0,0-2.1-2.14C566.34,317.62,563.67,335.18,562.23,344.62Z"/><path class="cls-3" d="M431.81-55a1.89,1.89,0,0,0-.56,1.58c3.44,27.87,21,30.55,30.44,32l1.16.18,11.06,11.06a36.13,36.13,0,0,0-4.44-.93c-7.34-1.05-18.09-.07-27.63,10.53A1.89,1.89,0,0,0,441.38,1a1.86,1.86,0,0,0,.95,1.34Q452,7.71,460.72,7.71c7.79,0,14.95-3.22,21.41-9.65l22.25,22.25a39.46,39.46,0,0,0-14.33-1.74c-10,.78-18.75,6.4-26,16.69a1.89,1.89,0,0,0,.84,2.85A48.06,48.06,0,0,0,483,42c10.93,0,20.55-4.81,28.72-14.39l8,8a1.9,1.9,0,1,0,2.68-2.68l-8-8c14.55-12.42,18.09-28.15,10.5-46.8a1.84,1.84,0,0,0-1.22-1.1,1.84,1.84,0,0,0-1.62.27c-10.29,7.25-15.91,16-16.7,26a39.76,39.76,0,0,0,1.75,14.34L484.8-4.62c11.21-11.26,12.67-24.64,4.32-39.8a1.93,1.93,0,0,0-1.35-.95,1.87,1.87,0,0,0-1.58.46c-10.6,9.54-11.58,20.29-10.53,27.63a36.7,36.7,0,0,0,.93,4.45L465.53-23.89c-3-18.41-13.84-29-32.13-31.6A1.87,1.87,0,0,0,431.81-55Z"/><path class="cls-3" d="M284.52-55.51a1.89,1.89,0,0,0-1.38.55,1.89,1.89,0,0,0-.55,1.58c2,16.11,8.7,23.81,15.82,27.71l1.12.58,0,0a41.16,41.16,0,0,0,11.8,3.42l1.65.25,1.17.18,11.06,11.06a35.91,35.91,0,0,0-4.45-.93c-7.33-1.05-18.08-.07-27.62,10.53A1.89,1.89,0,0,0,292.72,1a1.86,1.86,0,0,0,.95,1.34q9.69,5.34,18.39,5.34c7.79,0,14.95-3.22,21.41-9.65l22.25,22.25a39.71,39.71,0,0,0-14.33-1.74c-10,.78-18.75,6.4-26,16.69a1.89,1.89,0,0,0,.84,2.85A48,48,0,0,0,334.29,42c10.93,0,20.55-4.81,28.72-14.39l8,8a1.9,1.9,0,1,0,2.68-2.68l-8-8c14.55-12.42,18.09-28.15,10.5-46.8A1.84,1.84,0,0,0,375-23a1.84,1.84,0,0,0-1.62.27c-10.29,7.25-15.91,16-16.7,26a39.76,39.76,0,0,0,1.75,14.34L336.14-4.62c11.21-11.26,12.67-24.64,4.32-39.8a1.93,1.93,0,0,0-1.35-.95,1.87,1.87,0,0,0-1.58.46C326.93-35.37,326-24.62,327-17.28a34.89,34.89,0,0,0,.93,4.45L316.87-23.89q-.28-1.72-.66-3.36c-3.76-16.34-14.33-25.84-31.47-28.24Z"/><path class="cls-3" d="M320.74,18.93a1.89,1.89,0,0,0-1.89-1.87h0l-12.52.16a1.89,1.89,0,0,0,0,3.78h0l12.53-.15A1.9,1.9,0,0,0,320.74,18.93Z"/><path class="cls-3" d="M307.57,42.36a1.89,1.89,0,0,0-1.28,2.36l3.57,12a1.9,1.9,0,0,0,1.82,1.36,2.08,2.08,0,0,0,.54-.08,1.89,1.89,0,0,0,1.27-2.35l-3.57-12A1.89,1.89,0,0,0,307.57,42.36Z"/><path class="cls-3" d="M406,19.09a1.88,1.88,0,0,0-1.27,2.35l3.57,12a1.88,1.88,0,0,0,1.81,1.35,1.68,1.68,0,0,0,.54-.08A1.9,1.9,0,0,0,412,32.37l-3.57-12A1.9,1.9,0,0,0,406,19.09Z"/><path class="cls-3" d="M378.19,59.1a2,2,0,0,0,.54-.08A1.91,1.91,0,0,0,380,56.66l-3.57-12a1.89,1.89,0,1,0-3.63,1.07l3.57,12A1.89,1.89,0,0,0,378.19,59.1Z"/><path class="cls-3" d="M425.54,90.49a1.9,1.9,0,0,0-2-1.79L411,89.38a1.89,1.89,0,0,0,.1,3.78h.11l12.51-.68A1.9,1.9,0,0,0,425.54,90.49Z"/><path class="cls-3" d="M296.37,75a1.88,1.88,0,0,0,.22,1.63c7.19,11,16.13,16.53,26.67,16.53a37.42,37.42,0,0,0,12.37-2.28,1.91,1.91,0,0,0,1.09-1l.16,0a1.9,1.9,0,0,0,1.21-1c7-15.5,3.36-29-10.8-40.14a1.84,1.84,0,0,0-1.6-.35,1.87,1.87,0,0,0-1.28,1c-5,10.77-3.58,19.7-.75,26.05-6.08-3.42-14.89-5.7-26.14-1.6A1.92,1.92,0,0,0,296.37,75Z"/><path class="cls-3" d="M356.91,49.65a1.89,1.89,0,0,0-2.85.84c-7.58,18.64-4,34.38,10.51,46.79l-8,8a1.9,1.9,0,0,0,0,2.68,1.91,1.91,0,0,0,2.68,0l8-8c8.17,9.58,17.78,14.39,28.72,14.39A48.09,48.09,0,0,0,414,110.46a1.89,1.89,0,0,0,.83-2.84c-7.25-10.29-16-15.91-26-16.7a39.73,39.73,0,0,0-14.33,1.75l22.26-22.25c6.46,6.43,13.62,9.64,21.41,9.64q8.69,0,18.39-5.33a1.9,1.9,0,0,0,1-1.35,1.87,1.87,0,0,0-.46-1.58c-9.54-10.6-20.29-11.58-27.63-10.53a36.7,36.7,0,0,0-4.45.93l11.06-11.06c18.41-3,29-13.85,31.6-32.13a1.89,1.89,0,0,0-.53-1.6,1.92,1.92,0,0,0-1.58-.55c-27.87,3.44-30.55,21-32,30.43-.07.4-.13.8-.19,1.17L402.33,59.52a36.13,36.13,0,0,0,.93-4.44c1.05-7.34.07-18.09-10.53-27.64a1.91,1.91,0,0,0-2.93.5c-8.35,15.15-6.89,28.53,4.31,39.79L371.86,90a39.67,39.67,0,0,0,1.75-14.33C372.82,65.66,367.2,56.91,356.91,49.65Z"/><path class="cls-3" d="M445.5,58.08a1.9,1.9,0,0,0,0-3.79L433,54.13h0a1.9,1.9,0,0,0,0,3.79l12.53.16Z"/><path class="cls-3" d="M387.55,3.16a1.89,1.89,0,0,0,0,3q10.95,8.58,21.68,8.58c6.73,0,13.37-2.54,19.87-7.62a2,2,0,0,0,.73-1.42,1.55,1.55,0,0,0,0-.22,1.87,1.87,0,0,0,.7-1.33c1.31-16.95-6.69-28.42-23.79-34.07a1.91,1.91,0,0,0-1.63.21,1.88,1.88,0,0,0-.85,1.41c-1,11.64,3.17,19.48,7.9,24.49C405.4-5,396.59-4.1,387.55,3.16Z"/><path class="cls-3" d="M433.45,134.38l12.53-.16a1.89,1.89,0,0,0,0-3.78h0l-12.53.16a1.89,1.89,0,0,0,0,3.78Z"/><path class="cls-3" d="M340.46,104.24a1.93,1.93,0,0,0-1.35-.95,1.87,1.87,0,0,0-1.58.46q-1.38,1.25-2.55,2.52a29.66,29.66,0,0,0-8,25.11,34.89,34.89,0,0,0,.93,4.45l-11.06-11.06a48.26,48.26,0,0,0-2.53-9.53c-.37-1-.77-1.91-1.2-2.81-.22-.45-.44-.9-.67-1.34C307.16,101,297.88,95,284.74,93.17h-.22a1.88,1.88,0,0,0-1.94,1.9,1.62,1.62,0,0,0,0,.22,60.68,60.68,0,0,0,1.06,6.08c2.92,12.8,9.34,19,15.92,22.23l.46.21.13.06a37.74,37.74,0,0,0,8.66,2.7l.83.16h.09l.29,0,.14,0h0l.88.15,1.94.31h.11l1.06.17,11.06,11a37.84,37.84,0,0,0-4.45-.93c-7.33-1-18.08-.07-27.62,10.54a1.89,1.89,0,0,0,.49,2.92q9.69,5.34,18.39,5.34c7.79,0,14.95-3.22,21.41-9.65L355.72,169a39.73,39.73,0,0,0-14.33-1.74c-10,.78-18.75,6.4-26,16.69a1.89,1.89,0,0,0,.84,2.85,48,48,0,0,0,18.07,3.88c10.93,0,20.55-4.81,28.72-14.39l8,8a1.89,1.89,0,0,0,2.68-2.67l-8-8c14.55-12.42,18.09-28.15,10.5-46.8a1.86,1.86,0,0,0-1.22-1.1,1.9,1.9,0,0,0-1.62.27c-10.29,7.26-15.91,16-16.7,26a39.73,39.73,0,0,0,1.75,14.33L336.14,144C347.35,132.78,348.81,119.4,340.46,104.24Z"/><path class="cls-3" d="M320.74,167.59a1.89,1.89,0,0,0-1.89-1.87h0l-12.52.16a1.9,1.9,0,0,0,0,3.79h0l12.53-.16A1.9,1.9,0,0,0,320.74,167.59Z"/><path class="cls-3" d="M307.57,191a1.9,1.9,0,0,0-1.28,2.36l3.57,12a1.9,1.9,0,0,0,1.82,1.35,1.73,1.73,0,0,0,.54-.08,1.89,1.89,0,0,0,1.27-2.35l-3.57-12A1.89,1.89,0,0,0,307.57,191Z"/><path class="cls-3" d="M406,167.75a1.89,1.89,0,0,0-1.27,2.35l3.57,12a1.89,1.89,0,0,0,1.81,1.36,2,2,0,0,0,.54-.08A1.91,1.91,0,0,0,412,181l-3.57-12A1.9,1.9,0,0,0,406,167.75Z"/><path class="cls-3" d="M378.19,207.76a2,2,0,0,0,.54-.08,1.9,1.9,0,0,0,1.28-2.35l-3.57-12a1.89,1.89,0,1,0-3.63,1.08l3.57,12A1.89,1.89,0,0,0,378.19,207.76Z"/><path class="cls-3" d="M425.54,239.15a1.91,1.91,0,0,0-2-1.79L411,238a1.89,1.89,0,0,0,.1,3.78h.11l12.51-.68A1.9,1.9,0,0,0,425.54,239.15Z"/><path class="cls-3" d="M355.45,119.35a1.89,1.89,0,0,0-1.89,1.87l-.16,12.52a1.89,1.89,0,0,0,1.87,1.92h0a1.9,1.9,0,0,0,1.9-1.87l.16-12.52a1.9,1.9,0,0,0-1.87-1.92Z"/><path class="cls-3" d="M437.54,222.05a1.89,1.89,0,0,0-.46-1.59c-9.54-10.6-20.29-11.58-27.63-10.53a36.7,36.7,0,0,0-4.45.93l11.06-11.06c18.41-3,29-13.84,31.6-32.13a1.9,1.9,0,0,0-2.11-2.14c-27.87,3.43-30.55,21-32,30.42-.07.41-.13.8-.19,1.18l-11.05,11.05a36.13,36.13,0,0,0,.93-4.44c1.05-7.34.07-18.09-10.53-27.63a1.9,1.9,0,0,0-2.93.49c-8.35,15.16-6.89,28.53,4.31,39.8l-22.25,22.25a39.67,39.67,0,0,0,1.75-14.33c-.79-10-6.41-18.75-16.7-26a1.89,1.89,0,0,0-2.85.84c-7.58,18.65-4,34.38,10.51,46.79l-8,8a1.9,1.9,0,0,0,0,2.68,1.91,1.91,0,0,0,2.68,0l8-8C375.42,258.2,385,263,396,263A48.06,48.06,0,0,0,414,259.13a1.88,1.88,0,0,0,1.1-1.23,1.84,1.84,0,0,0-.27-1.62c-7.25-10.29-16-15.91-26-16.7a40,40,0,0,0-14.34,1.75l22.26-22.25c6.46,6.43,13.62,9.65,21.41,9.65q8.69,0,18.39-5.34A1.89,1.89,0,0,0,437.54,222.05Z"/><path class="cls-3" d="M296.37,223.67a1.91,1.91,0,0,0,.22,1.64c7.19,11,16.13,16.52,26.67,16.52a37.42,37.42,0,0,0,12.37-2.28,1.88,1.88,0,0,0,1.09-1l.16,0a1.9,1.9,0,0,0,1.21-1c7-15.5,3.36-29-10.8-40.14a1.89,1.89,0,0,0-2.88.69c-5,10.77-3.58,19.7-.75,26.05-6.08-3.42-14.89-5.7-26.14-1.6A1.92,1.92,0,0,0,296.37,223.67Z"/><path class="cls-3" d="M390.34,125.2a1.89,1.89,0,0,0-3.37,1.73l5.38,10.51a1.89,1.89,0,1,0,3.37-1.73Z"/><path class="cls-3" d="M445.5,206.74a1.9,1.9,0,0,0,0-3.79L433,202.79a1.9,1.9,0,1,0-.05,3.79l12.53.16Z"/><path class="cls-3" d="M387.55,151.82a1.89,1.89,0,0,0,0,3q10.95,8.58,21.68,8.58c6.73,0,13.37-2.54,19.87-7.62a1.91,1.91,0,0,0,.73-1.42,1.62,1.62,0,0,0,0-.22,1.87,1.87,0,0,0,.7-1.32c1.31-17-6.69-28.42-23.79-34.08a1.91,1.91,0,0,0-1.63.21,1.88,1.88,0,0,0-.85,1.42c-1,11.63,3.17,19.47,7.9,24.49C405.4,143.71,396.59,144.56,387.55,151.82Z"/><path class="cls-3" d="M447.84,281A1.88,1.88,0,0,0,446,279.1h0l-12.53.16a1.89,1.89,0,0,0,0,3.78h0l12.53-.16A1.88,1.88,0,0,0,447.84,281Z"/><path class="cls-3" d="M363,324.93l8,8a1.91,1.91,0,0,0,2.68,0,1.9,1.9,0,0,0,0-2.68l-8-8c14.55-12.41,18.09-28.15,10.5-46.8a1.86,1.86,0,0,0-1.22-1.1,1.9,1.9,0,0,0-1.62.27c-10.29,7.26-15.91,16-16.7,26A39.7,39.7,0,0,0,358.4,315L336.14,292.7c11.21-11.26,12.67-24.64,4.32-39.79a1.92,1.92,0,0,0-1.35-1l-.21,0a1.88,1.88,0,0,0-1.37.48,32.67,32.67,0,0,0-9,12.84,27.57,27.57,0,0,0-.84,2.63s0,.05,0,.07A30.44,30.44,0,0,0,327,280a34.18,34.18,0,0,0,.93,4.45l-11.06-11.06q-.28-1.73-.66-3.36c-3.76-16.34-14.33-25.83-31.47-28.23l-.22,0a1.92,1.92,0,0,0-1.38.54,1.88,1.88,0,0,0-.56,1.36,1.55,1.55,0,0,0,0,.22,57.63,57.63,0,0,0,1.82,9c2.88,9.79,8,15.22,13.43,18.37a34.68,34.68,0,0,0,10.59,3.81c1.66.34,3.21.58,4.59.79l.2,0,1,.15,11.06,11.06a35.87,35.87,0,0,0-4.45-.94c-7.33-1-18.08-.07-27.62,10.54a1.89,1.89,0,0,0,.49,2.92q9.69,5.34,18.39,5.34c7.79,0,14.95-3.22,21.41-9.65l22.25,22.26a39.73,39.73,0,0,0-14.33-1.75c-10,.78-18.75,6.4-26,16.69a1.89,1.89,0,0,0,.84,2.85,48.06,48.06,0,0,0,18.07,3.88C345.22,339.31,354.84,334.51,363,324.93Z"/><path class="cls-3" d="M320.74,316.25a1.89,1.89,0,0,0-1.89-1.87h0l-12.52.16a1.9,1.9,0,0,0,0,3.79h0l12.53-.16A1.9,1.9,0,0,0,320.74,316.25Z"/><path class="cls-3" d="M307.57,339.68a1.9,1.9,0,0,0-1.28,2.36l3.57,12a1.9,1.9,0,0,0,1.82,1.35,1.73,1.73,0,0,0,.54-.08,1.88,1.88,0,0,0,1.27-2.35l-3.57-12A1.9,1.9,0,0,0,307.57,339.68Z"/><path class="cls-3" d="M406,316.41a1.89,1.89,0,0,0-1.27,2.35l3.57,12a1.88,1.88,0,0,0,1.81,1.36,2,2,0,0,0,.54-.08,1.91,1.91,0,0,0,1.28-2.36l-3.57-12A1.9,1.9,0,0,0,406,316.41Z"/><path class="cls-3" d="M376.38,355.07a1.89,1.89,0,0,0,1.81,1.35,1.68,1.68,0,0,0,.54-.08A1.9,1.9,0,0,0,380,354l-3.57-12a1.89,1.89,0,1,0-3.63,1.08Z"/><path class="cls-3" d="M425.54,387.81a1.91,1.91,0,0,0-2-1.79L411,386.7a1.89,1.89,0,0,0,.1,3.78h.11l12.51-.68A1.9,1.9,0,0,0,425.54,387.81Z"/><path class="cls-3" d="M355.29,284.32a1.9,1.9,0,0,0,1.9-1.87l.16-12.52a1.9,1.9,0,0,0-1.87-1.92h0a1.89,1.89,0,0,0-1.89,1.87l-.16,12.53a1.89,1.89,0,0,0,1.87,1.91Z"/><path class="cls-3" d="M437.54,370.71a1.87,1.87,0,0,0-.46-1.58c-9.54-10.61-20.29-11.59-27.63-10.54a38.72,38.72,0,0,0-4.45.93l11.06-11c18.41-3,29-13.85,31.6-32.14a1.9,1.9,0,0,0-2.11-2.14c-27.87,3.43-30.55,21-32,30.42-.07.41-.13.8-.19,1.18l-11.05,11a36.13,36.13,0,0,0,.93-4.44c1.05-7.34.07-18.09-10.53-27.63a1.87,1.87,0,0,0-1.58-.46,1.93,1.93,0,0,0-1.35.95c-8.35,15.16-6.89,28.54,4.31,39.8l-22.25,22.25A39.64,39.64,0,0,0,373.61,373c-.79-10-6.41-18.76-16.7-26a1.89,1.89,0,0,0-1.63-.27,1.91,1.91,0,0,0-1.22,1.1c-7.58,18.65-4,34.38,10.51,46.8l-8,8a1.9,1.9,0,1,0,2.68,2.68l8-8c8.17,9.58,17.78,14.39,28.72,14.39A48.06,48.06,0,0,0,414,407.79a1.88,1.88,0,0,0,1.1-1.22,1.85,1.85,0,0,0-.27-1.63c-7.25-10.29-16-15.91-26-16.69A39.51,39.51,0,0,0,374.53,390l22.26-22.26c6.46,6.43,13.62,9.65,21.41,9.65q8.69,0,18.39-5.34A1.89,1.89,0,0,0,437.54,370.71Z"/><path class="cls-3" d="M323.26,390.49a37.4,37.4,0,0,0,12.37-2.27,1.93,1.93,0,0,0,1.09-1l.16,0a1.9,1.9,0,0,0,1.21-1c7-15.5,3.36-29-10.8-40.13a1.88,1.88,0,0,0-2.88.68c-5,10.77-3.58,19.7-.75,26.05-6.08-3.42-14.89-5.7-26.14-1.6a2,2,0,0,0-1.15,1.18,1.91,1.91,0,0,0,.22,1.64C303.78,385,312.72,390.49,323.26,390.49Z"/><path class="cls-3" d="M394,287.13a1.91,1.91,0,0,0,.86-.21,1.89,1.89,0,0,0,.82-2.55l-5.38-10.51a1.89,1.89,0,0,0-3.37,1.73l5.38,10.51A1.9,1.9,0,0,0,394,287.13Z"/><path class="cls-3" d="M445.5,355.4a1.9,1.9,0,0,0,0-3.79L433,351.45h0a1.9,1.9,0,0,0,0,3.79l12.53.16Z"/><path class="cls-3" d="M430.54,301.45c1.31-17-6.69-28.42-23.79-34.08a1.88,1.88,0,0,0-1.63.22,1.85,1.85,0,0,0-.85,1.41c-1,11.63,3.17,19.47,7.9,24.49-6.77-1.12-15.58-.27-24.62,7a1.89,1.89,0,0,0,0,3Q398.52,312,409.25,312c6.73,0,13.37-2.54,19.87-7.62a1.91,1.91,0,0,0,.73-1.42,1.7,1.7,0,0,0,0-.22A1.85,1.85,0,0,0,430.54,301.45Z"/><path class="cls-3" d="M447.84,429.63a1.88,1.88,0,0,0-1.91-1.87l-12.53.16a1.9,1.9,0,0,0,0,3.79h0l12.53-.16A1.89,1.89,0,0,0,447.84,429.63Z"/><path class="cls-3" d="M363,473.59l8,8a1.91,1.91,0,0,0,2.68,0,1.9,1.9,0,0,0,0-2.68l-8-8c14.55-12.41,18.09-28.15,10.5-46.79A1.85,1.85,0,0,0,375,423a1.9,1.9,0,0,0-1.62.27c-10.29,7.26-15.91,16-16.7,26a39.67,39.67,0,0,0,1.75,14.33l-22.26-22.26c11.21-11.26,12.67-24.64,4.32-39.79a1.91,1.91,0,0,0-2.93-.5c-10.6,9.55-11.58,20.3-10.53,27.63a34.18,34.18,0,0,0,.93,4.45l-11.06-11.06q-.28-1.72-.66-3.36c-3.76-16.34-14.33-25.83-31.47-28.23l-.22,0a1.89,1.89,0,0,0-1.93,2.12c1.93,15.68,8.34,23.39,15.25,27.39a38.12,38.12,0,0,0,13.26,4.3l1.93.3,1.16.18,11.06,11.06a34.18,34.18,0,0,0-4.45-.93c-7.33-1-18.08-.08-27.63,10.53a1.91,1.91,0,0,0,.5,2.93q9.69,5.34,18.39,5.33c7.79,0,14.95-3.22,21.41-9.65l22.25,22.26a39.67,39.67,0,0,0-14.33-1.75c-10,.79-18.75,6.4-26,16.7a1.9,1.9,0,0,0-.27,1.62,1.88,1.88,0,0,0,1.11,1.22A48,48,0,0,0,334.29,488C345.22,488,354.83,483.17,363,473.59Z"/><path class="cls-3" d="M320.74,464.91a1.9,1.9,0,0,0-1.89-1.87h0l-12.52.16a1.9,1.9,0,0,0,0,3.79h0l12.53-.16A1.89,1.89,0,0,0,320.74,464.91Z"/><path class="cls-3" d="M307.57,488.35a1.89,1.89,0,0,0-1.28,2.35l3.57,12a1.9,1.9,0,0,0,1.82,1.35,2.05,2.05,0,0,0,.54-.07,1.9,1.9,0,0,0,1.27-2.36l-3.57-12A1.89,1.89,0,0,0,307.57,488.35Z"/><path class="cls-3" d="M406,465.07a1.89,1.89,0,0,0-1.27,2.36l3.57,12a1.88,1.88,0,0,0,1.81,1.35,2,2,0,0,0,.54-.08,1.9,1.9,0,0,0,1.28-2.35l-3.57-12A1.9,1.9,0,0,0,406,465.07Z"/><path class="cls-3" d="M376.38,503.73a1.89,1.89,0,0,0,1.81,1.35,1.68,1.68,0,0,0,.54-.08,1.9,1.9,0,0,0,1.28-2.35l-3.57-12a1.89,1.89,0,0,0-3.63,1.08Z"/><path class="cls-3" d="M355.29,433a1.91,1.91,0,0,0,1.9-1.87l.16-12.53a1.9,1.9,0,0,0-1.87-1.92h0a1.89,1.89,0,0,0-1.89,1.87l-.16,12.53a1.9,1.9,0,0,0,1.87,1.92Z"/><path class="cls-3" d="M323.26,539.16a37.47,37.47,0,0,0,12.37-2.28,1.93,1.93,0,0,0,1.09-1l.16,0a1.94,1.94,0,0,0,1.21-1.05c7-15.49,3.36-29-10.8-40.13a1.88,1.88,0,0,0-2.88.69c-5,10.77-3.58,19.69-.75,26-6.08-3.41-14.89-5.7-26.14-1.59a1.88,1.88,0,0,0-.93,2.81C303.78,533.63,312.71,539.16,323.26,539.16Z"/><path class="cls-3" d="M388.87,536.91a39.76,39.76,0,0,0-14.34,1.75l22.26-22.26c6.46,6.43,13.62,9.65,21.41,9.65q8.69,0,18.39-5.34a1.89,1.89,0,0,0,.49-2.92c-9.54-10.61-20.29-11.59-27.63-10.54a36.67,36.67,0,0,0-4.45.94l11.06-11.06c18.41-3,29-13.85,31.6-32.14a1.9,1.9,0,0,0-2.11-2.14c-27.87,3.43-30.55,21-32,30.42-.07.41-.13.8-.19,1.18L402.33,505.5a36.13,36.13,0,0,0,.93-4.44c1.05-7.33.07-18.08-10.53-27.63a1.9,1.9,0,0,0-2.93.5c-8.35,15.15-6.89,28.53,4.31,39.79L371.86,536a39.73,39.73,0,0,0,1.75-14.33c-.79-10-6.41-18.75-16.7-26a1.89,1.89,0,0,0-1.63-.27,1.91,1.91,0,0,0-1.22,1.1c-7.58,18.65-4,34.38,10.51,46.8l-8,8a1.9,1.9,0,0,0,1.34,3.23,1.9,1.9,0,0,0,1.34-.56l8-8c8.17,9.59,17.78,14.39,28.72,14.39A48.06,48.06,0,0,0,414,556.45a1.88,1.88,0,0,0,1.1-1.22,1.85,1.85,0,0,0-.27-1.63C407.62,543.31,398.87,537.7,388.87,536.91Z"/><path class="cls-3" d="M394,435.79a1.79,1.79,0,0,0,.86-.21,1.88,1.88,0,0,0,.82-2.54l-5.38-10.51a1.89,1.89,0,1,0-3.37,1.72l5.38,10.51A1.88,1.88,0,0,0,394,435.79Z"/><path class="cls-3" d="M445.5,504.06a1.9,1.9,0,0,0,0-3.79L433,500.12h0a1.89,1.89,0,0,0,0,3.78l12.53.16Z"/><path class="cls-3" d="M430.54,450.11c1.31-16.95-6.69-28.42-23.79-34.08a1.88,1.88,0,0,0-1.63.22,1.85,1.85,0,0,0-.85,1.41c-1,11.63,3.17,19.47,7.9,24.49-6.77-1.12-15.58-.26-24.62,7a1.89,1.89,0,0,0-.71,1.48,1.91,1.91,0,0,0,.73,1.48q10.95,8.58,21.68,8.58c6.73,0,13.37-2.54,19.87-7.62a1.91,1.91,0,0,0,.73-1.42,1.48,1.48,0,0,0,0-.21A1.89,1.89,0,0,0,430.54,450.11Z"/><path class="cls-3" d="M135.85-55.51a1.89,1.89,0,0,0-1.37.55,1.89,1.89,0,0,0-.55,1.58c3.44,27.87,21,30.55,30.43,32l1.17.18,11.06,11.06a36.3,36.3,0,0,0-4.45-.93l-.88-.11c-7.3-.85-17.58.46-26.75,10.64A2,2,0,0,0,144.05,1a2.77,2.77,0,0,0,.12.41,1.9,1.9,0,0,0,.84.93c1.25.69,2.49,1.31,3.72,1.87A35.61,35.61,0,0,0,163.4,7.71h0a26.94,26.94,0,0,0,10.52-2.12A34.23,34.23,0,0,0,184.8-1.94l22.26,22.25a39.51,39.51,0,0,0-14.33-1.74c-10,.78-18.75,6.4-26,16.69a1.9,1.9,0,0,0,.83,2.85A48.07,48.07,0,0,0,185.63,42c10.93,0,20.54-4.81,28.72-14.39l8,8a1.89,1.89,0,0,0,1.34.56A1.86,1.86,0,0,0,225,35.6a1.9,1.9,0,0,0,0-2.68l-8-8c14.55-12.42,18.08-28.15,10.5-46.8a1.88,1.88,0,0,0-1.22-1.1,1.86,1.86,0,0,0-1.63.27c-10.29,7.25-15.9,16-16.69,26a39.76,39.76,0,0,0,1.75,14.34L187.48-4.62c11.2-11.26,12.66-24.64,4.31-39.8a1.89,1.89,0,0,0-1.34-.95,1.87,1.87,0,0,0-1.58.46c-10.61,9.54-11.58,20.29-10.53,27.63a34.89,34.89,0,0,0,.93,4.45L168.21-23.89c-.1-.58-.2-1.14-.31-1.7-3.41-17.36-14.11-27.42-31.83-29.9Z"/><path class="cls-3" d="M172.08,18.93a1.9,1.9,0,0,0-1.9-1.87h0l-12.53.16a1.89,1.89,0,0,0,0,3.78h0l12.53-.15A1.91,1.91,0,0,0,172.08,18.93Z"/><path class="cls-3" d="M158.9,42.36a1.89,1.89,0,0,0-1.27,2.36l3.57,12A1.89,1.89,0,0,0,163,58.08a2,2,0,0,0,.54-.08,1.89,1.89,0,0,0,1.28-2.35l-3.57-12A1.9,1.9,0,0,0,158.9,42.36Z"/><path class="cls-3" d="M257.36,19.09a1.89,1.89,0,0,0-1.28,2.35l3.57,12a1.9,1.9,0,0,0,1.82,1.35,1.68,1.68,0,0,0,.54-.08,1.88,1.88,0,0,0,1.27-2.35l-3.57-12A1.89,1.89,0,0,0,257.36,19.09Z"/><path class="cls-3" d="M229.53,59.1a2,2,0,0,0,.54-.08,1.91,1.91,0,0,0,1.28-2.36l-3.58-12a1.88,1.88,0,0,0-2.35-1.28,1.9,1.9,0,0,0-1.28,2.35l3.58,12A1.88,1.88,0,0,0,229.53,59.1Z"/><path class="cls-3" d="M276.87,90.49a1.89,1.89,0,0,0-2-1.79l-12.51.68a1.89,1.89,0,0,0,.1,3.78h.11l12.51-.68A1.89,1.89,0,0,0,276.87,90.49Z"/><path class="cls-3" d="M147.71,75a1.91,1.91,0,0,0,.21,1.63c7.2,11,16.13,16.53,26.68,16.53A37.47,37.47,0,0,0,187,90.89a1.9,1.9,0,0,0,1.09-1l.15,0a1.88,1.88,0,0,0,1.21-1c7-15.5,3.37-29-10.79-40.14a1.89,1.89,0,0,0-2.88.69c-5,10.77-3.59,19.7-.75,26.05-6.08-3.42-14.9-5.7-26.14-1.6A1.9,1.9,0,0,0,147.71,75Z"/><path class="cls-3" d="M208.25,49.65a1.89,1.89,0,0,0-2.85.84c-7.58,18.64-4.05,34.38,10.51,46.79l-8,8a1.9,1.9,0,0,0,0,2.68,1.91,1.91,0,0,0,2.68,0l8-8c8.18,9.58,17.79,14.39,28.72,14.39a48.1,48.1,0,0,0,18.08-3.89,1.86,1.86,0,0,0,1.1-1.22,1.9,1.9,0,0,0-.27-1.62c-7.26-10.29-16-15.91-26-16.7a39.73,39.73,0,0,0-14.33,1.75l22.26-22.25q9.69,9.64,21.41,9.64,8.67,0,18.39-5.33a1.93,1.93,0,0,0,.95-1.35,1.87,1.87,0,0,0-.46-1.58c-9.55-10.6-20.29-11.58-27.63-10.53a34.89,34.89,0,0,0-4.45.93L267.4,51.14c18.41-3,29-13.85,31.6-32.13a1.89,1.89,0,0,0-.53-1.6,1.92,1.92,0,0,0-1.58-.55c-27.87,3.44-30.55,21-32,30.43q-.09.62-.18,1.17L253.67,59.52a38.09,38.09,0,0,0,.93-4.44c1.05-7.34.07-18.09-10.54-27.64a1.89,1.89,0,0,0-1.58-.45,1.86,1.86,0,0,0-1.34,1c-8.35,15.15-6.89,28.53,4.31,39.8L223.2,90a39.68,39.68,0,0,0,1.74-14.33C224.16,65.66,218.54,56.91,208.25,49.65Z"/><path class="cls-3" d="M296.84,58.08a1.9,1.9,0,0,0,0-3.79l-12.53-.16a1.9,1.9,0,1,0-.05,3.79l12.53.16Z"/><path class="cls-3" d="M238.89,3.16a1.89,1.89,0,0,0,0,3c7.29,5.72,14.54,8.58,21.68,8.58,6.73,0,13.37-2.54,19.87-7.62a1.9,1.9,0,0,0,.72-1.42,1.61,1.61,0,0,0,0-.22,1.93,1.93,0,0,0,.7-1.33c1.31-16.95-6.7-28.42-23.8-34.07a1.92,1.92,0,0,0-1.63.21,1.94,1.94,0,0,0-.85,1.42c-1,11.63,3.18,19.47,7.91,24.48C256.73-5,247.93-4.1,238.89,3.16Z"/><path class="cls-3" d="M284.78,134.38l12.53-.16a1.89,1.89,0,0,0,0-3.78h0l-12.52.16a1.89,1.89,0,0,0,0,3.78Z"/><path class="cls-3" d="M193.24,107.07c-.44-.94-.92-1.88-1.45-2.83a1.89,1.89,0,0,0-1.34-.95l-.21,0a1.86,1.86,0,0,0-1.37.48c-8.62,7.76-10.88,16.31-10.86,23.17a31,31,0,0,0,.33,4.46c0,.25.07.49.11.73a34.63,34.63,0,0,0,.82,3.72l-11.06-11.06c-.1-.58-.2-1.14-.31-1.7-3.41-17.36-14.11-27.42-31.83-29.9h-.22a1.86,1.86,0,0,0-1.37.54,1.84,1.84,0,0,0-.56,1.36,1.62,1.62,0,0,0,0,.22,60.77,60.77,0,0,0,1,6.08c2.93,12.8,9.35,19,15.93,22.23a39,39,0,0,0,10.56,3.21h0l.11,0c1,.17,1.89.31,2.74.44l1.17.18,11.06,11a38.27,38.27,0,0,0-4.45-.93,29.47,29.47,0,0,0-21.77,5.26c-.68.48-1.36,1-2,1.57l-.31.26c-.57.49-1.15,1-1.71,1.57s-1.21,1.21-1.81,1.88a1.93,1.93,0,0,0-.46,1.58,1.9,1.9,0,0,0,1,1.34q9.69,5.34,18.39,5.34h0c.74,0,1.48,0,2.21-.09h.11a25,25,0,0,0,3.36-.5q8.43-1.8,15.72-9.05L207.06,169a39.73,39.73,0,0,0-14.33-1.74c-10,.78-18.75,6.4-26,16.69a1.9,1.9,0,0,0,.83,2.85,48.07,48.07,0,0,0,18.08,3.88c10.93,0,20.54-4.81,28.72-14.39l8,8a1.89,1.89,0,0,0,1.34.56,1.86,1.86,0,0,0,1.33-.56,1.87,1.87,0,0,0,0-2.67l-8-8c14.55-12.42,18.08-28.15,10.5-46.8a1.91,1.91,0,0,0-1.22-1.1,1.93,1.93,0,0,0-1.63.27c-10.29,7.26-15.9,16-16.69,26a39.73,39.73,0,0,0,1.75,14.33L187.48,144C198,133.48,199.92,121.07,193.24,107.07Z"/><path class="cls-3" d="M172.08,167.59a1.9,1.9,0,0,0-1.9-1.87h0l-12.53.16a1.9,1.9,0,0,0,0,3.79h0l12.53-.16A1.91,1.91,0,0,0,172.08,167.59Z"/><path class="cls-3" d="M158.9,191a1.9,1.9,0,0,0-1.27,2.36l3.57,12a1.89,1.89,0,0,0,1.81,1.35,1.68,1.68,0,0,0,.54-.08,1.89,1.89,0,0,0,1.28-2.35l-3.57-12A1.9,1.9,0,0,0,158.9,191Z"/><path class="cls-3" d="M257.36,167.75a1.89,1.89,0,0,0-1.28,2.35l3.57,12a1.91,1.91,0,0,0,1.82,1.36,2,2,0,0,0,.54-.08,1.9,1.9,0,0,0,1.27-2.36l-3.57-12A1.89,1.89,0,0,0,257.36,167.75Z"/><path class="cls-3" d="M229.53,207.76a2,2,0,0,0,.54-.08,1.9,1.9,0,0,0,1.28-2.35l-3.58-12a1.89,1.89,0,1,0-3.63,1.08l3.58,12A1.88,1.88,0,0,0,229.53,207.76Z"/><path class="cls-3" d="M276.87,239.15a1.9,1.9,0,0,0-2-1.79l-12.51.68a1.89,1.89,0,0,0,.1,3.78h.11l12.51-.68A1.89,1.89,0,0,0,276.87,239.15Z"/><path class="cls-3" d="M206.79,119.35a1.89,1.89,0,0,0-1.89,1.87l-.16,12.52a1.89,1.89,0,0,0,1.87,1.92h0a1.9,1.9,0,0,0,1.9-1.87l.15-12.52a1.88,1.88,0,0,0-1.86-1.92Z"/><path class="cls-3" d="M288.88,222.05a1.89,1.89,0,0,0-.46-1.59c-9.55-10.6-20.29-11.58-27.63-10.53a36.7,36.7,0,0,0-4.45.93L267.4,199.8c18.41-3,29-13.84,31.6-32.13a1.88,1.88,0,0,0-.53-1.59,1.86,1.86,0,0,0-1.58-.55c-27.87,3.43-30.55,21-32,30.42-.06.41-.12.8-.18,1.18l-11.05,11.05a38.09,38.09,0,0,0,.93-4.44c1.05-7.34.07-18.09-10.54-27.63a1.89,1.89,0,0,0-2.92.49c-8.35,15.16-6.89,28.53,4.31,39.8l-22.26,22.25a39.45,39.45,0,0,0,1.75-14.33c-.78-10-6.4-18.75-16.69-26a1.89,1.89,0,0,0-2.85.84c-7.58,18.65-4.05,34.38,10.51,46.79l-8,8a1.9,1.9,0,0,0,0,2.68,1.91,1.91,0,0,0,2.68,0l8-8C226.76,258.2,236.37,263,247.3,263a48.07,48.07,0,0,0,18.08-3.88,1.9,1.9,0,0,0,.83-2.85c-7.26-10.29-16-15.91-26-16.7a39.73,39.73,0,0,0-14.33,1.75l22.26-22.25q9.69,9.64,21.41,9.65,8.67,0,18.39-5.34A1.91,1.91,0,0,0,288.88,222.05Z"/><path class="cls-3" d="M147.71,223.67a1.94,1.94,0,0,0,.21,1.64c7.2,11,16.13,16.52,26.68,16.52A37.47,37.47,0,0,0,187,239.55a1.88,1.88,0,0,0,1.09-1l.15,0a1.88,1.88,0,0,0,1.21-1c7-15.5,3.37-29-10.79-40.14A1.92,1.92,0,0,0,177,197a1.9,1.9,0,0,0-1.27,1c-5,10.77-3.59,19.7-.75,26.05-6.08-3.42-14.9-5.7-26.14-1.6A1.9,1.9,0,0,0,147.71,223.67Z"/><path class="cls-3" d="M241.68,125.2a1.89,1.89,0,1,0-3.37,1.73l5.38,10.51a1.89,1.89,0,0,0,3.37-1.73Z"/><path class="cls-3" d="M296.84,206.74a1.9,1.9,0,0,0,0-3.79l-12.53-.16a1.9,1.9,0,1,0-.05,3.79l12.53.16Z"/><path class="cls-3" d="M238.89,151.82a1.91,1.91,0,0,0-.71,1.49,1.88,1.88,0,0,0,.73,1.48c7.29,5.72,14.54,8.58,21.68,8.58,6.73,0,13.37-2.54,19.87-7.62a1.87,1.87,0,0,0,.72-1.42,1.62,1.62,0,0,0,0-.22,1.9,1.9,0,0,0,.7-1.32c1.31-17-6.7-28.42-23.8-34.08a1.92,1.92,0,0,0-1.63.21,1.94,1.94,0,0,0-.85,1.42c-1,11.63,3.18,19.47,7.91,24.49C256.73,143.7,247.93,144.56,238.89,151.82Z"/><path class="cls-3" d="M299.18,281a1.89,1.89,0,0,0-1.89-1.87h0l-12.52.16a1.89,1.89,0,0,0,0,3.78h0l12.53-.16A1.88,1.88,0,0,0,299.18,281Z"/><path class="cls-3" d="M214.35,324.93l8,8a1.88,1.88,0,0,0,1.34.55,1.85,1.85,0,0,0,1.33-.55,1.9,1.9,0,0,0,0-2.68l-8-8c14.55-12.42,18.08-28.15,10.5-46.8a1.91,1.91,0,0,0-1.22-1.1,1.93,1.93,0,0,0-1.63.27c-10.29,7.26-15.9,16-16.69,26A39.7,39.7,0,0,0,209.74,315L187.48,292.7c9.7-9.74,12.09-21.08,7.15-33.77-.3-.77-.63-1.54-1-2.31-.23-.52-.47-1-.73-1.55-.36-.72-.73-1.44-1.13-2.16a1.88,1.88,0,0,0-1.34-1,1.93,1.93,0,0,0-1.58.46c-8.62,7.76-10.88,16.31-10.86,23.18a30.88,30.88,0,0,0,.33,4.45,34.18,34.18,0,0,0,.93,4.45l-11.06-11.06c-.1-.57-.2-1.14-.31-1.7-3.41-17.36-14.11-27.41-31.83-29.89l-.22,0a1.92,1.92,0,0,0-1.37.54,1.84,1.84,0,0,0-.56,1.36,1.55,1.55,0,0,0,0,.22,55.42,55.42,0,0,0,1.82,9c4.71,16,15.38,20.36,23.65,22.11h0l.17,0c1.72.36,3.33.6,4.76.82l.11,0,1.06.16,11.06,11.06a36.27,36.27,0,0,0-4.45-.94,31.67,31.67,0,0,0-7.73-.15c-.48.05-1,.11-1.45.19l-.27,0c-5.78,1-12.21,3.83-18.18,10.46a1.93,1.93,0,0,0-.46,1.58,1.9,1.9,0,0,0,1,1.34Q154.7,305,163.4,305h0a28.47,28.47,0,0,0,3.08-.17h0l1-.14q9.33-1.41,17.31-9.34l22.26,22.26a39.73,39.73,0,0,0-14.33-1.75c-10,.78-18.75,6.4-26,16.69a1.9,1.9,0,0,0,.83,2.85,48.07,48.07,0,0,0,18.08,3.88C196.56,339.31,206.17,334.51,214.35,324.93Z"/><path class="cls-3" d="M172.08,316.25a1.9,1.9,0,0,0-1.9-1.87h0l-12.53.16a1.9,1.9,0,0,0,0,3.79h0l12.53-.16A1.9,1.9,0,0,0,172.08,316.25Z"/><path class="cls-3" d="M158.9,339.68a1.9,1.9,0,0,0-1.27,2.36l3.57,12A1.89,1.89,0,0,0,163,355.4a1.68,1.68,0,0,0,.54-.08,1.88,1.88,0,0,0,1.28-2.35l-3.57-12A1.91,1.91,0,0,0,158.9,339.68Z"/><path class="cls-3" d="M257.36,316.41a1.89,1.89,0,0,0-1.28,2.35l3.57,12a1.9,1.9,0,0,0,1.82,1.36,2,2,0,0,0,.54-.08,1.89,1.89,0,0,0,1.27-2.36l-3.57-12A1.89,1.89,0,0,0,257.36,316.41Z"/><path class="cls-3" d="M227.72,355.07a1.88,1.88,0,0,0,1.81,1.35,1.68,1.68,0,0,0,.54-.08,1.9,1.9,0,0,0,1.28-2.35l-3.58-12a1.89,1.89,0,1,0-3.63,1.08Z"/><path class="cls-3" d="M276.87,387.81a1.89,1.89,0,0,0-2-1.79l-12.51.68a1.89,1.89,0,0,0,.1,3.78h.11l12.51-.68A1.89,1.89,0,0,0,276.87,387.81Z"/><path class="cls-3" d="M206.63,284.32a1.9,1.9,0,0,0,1.9-1.87l.15-12.52a1.88,1.88,0,0,0-1.86-1.92h0a1.89,1.89,0,0,0-1.89,1.87l-.16,12.53a1.89,1.89,0,0,0,1.87,1.91Z"/><path class="cls-3" d="M150.52,281a1.89,1.89,0,0,0-1.89-1.87h0l-12.52.16a1.89,1.89,0,0,0,0,3.78h0l12.53-.16A1.89,1.89,0,0,0,150.52,281Z"/><path class="cls-3" d="M288.88,370.71a1.87,1.87,0,0,0-.46-1.58c-9.55-10.61-20.3-11.59-27.63-10.54a38.72,38.72,0,0,0-4.45.93l11.06-11c18.4-3,29-13.85,31.6-32.14a1.9,1.9,0,0,0-2.11-2.14c-27.87,3.43-30.55,21-32,30.43l-.18,1.17-11.05,11a38.09,38.09,0,0,0,.93-4.44c1.05-7.34.07-18.09-10.54-27.63a1.87,1.87,0,0,0-1.58-.46,1.91,1.91,0,0,0-1.34.95c-8.35,15.16-6.89,28.54,4.31,39.8L223.2,387.32A39.73,39.73,0,0,0,224.94,373c-.78-10-6.4-18.76-16.69-26a1.9,1.9,0,0,0-2.85.83c-7.58,18.65-4.05,34.38,10.51,46.8l-8,8a1.9,1.9,0,1,0,2.68,2.68l8-8c8.18,9.58,17.79,14.39,28.72,14.39a48.07,48.07,0,0,0,18.08-3.88,1.9,1.9,0,0,0,.83-2.85c-7.26-10.29-16-15.91-26-16.69A39.51,39.51,0,0,0,225.87,390l22.26-22.26q9.69,9.64,21.4,9.65,8.69,0,18.4-5.34A1.91,1.91,0,0,0,288.88,370.71Z"/><path class="cls-3" d="M174.6,390.49A37.44,37.44,0,0,0,187,388.22a1.93,1.93,0,0,0,1.09-1l.15,0a1.88,1.88,0,0,0,1.21-1c7-15.5,3.37-29-10.79-40.13a1.88,1.88,0,0,0-2.88.68c-5,10.77-3.59,19.7-.75,26.05-6.08-3.42-14.9-5.7-26.14-1.6a1.9,1.9,0,0,0-.94,2.82C155.11,385,164.05,390.49,174.6,390.49Z"/><path class="cls-3" d="M245.37,287.13a1.9,1.9,0,0,0,1.69-2.76l-5.38-10.51a1.89,1.89,0,1,0-3.37,1.73l5.38,10.51A1.89,1.89,0,0,0,245.37,287.13Z"/><path class="cls-3" d="M296.84,355.4a1.9,1.9,0,0,0,0-3.79l-12.53-.16h0a1.9,1.9,0,0,0,0,3.79l12.53.16Z"/><path class="cls-3" d="M281.88,301.45c1.31-17-6.7-28.42-23.8-34.08A1.9,1.9,0,0,0,255.6,269c-1,11.63,3.18,19.47,7.91,24.49-6.78-1.12-15.58-.27-24.62,7a1.91,1.91,0,0,0-.71,1.49,1.88,1.88,0,0,0,.73,1.48c7.29,5.72,14.54,8.58,21.68,8.58,6.73,0,13.37-2.54,19.87-7.62a1.87,1.87,0,0,0,.72-1.42,1.62,1.62,0,0,0,0-.22A1.88,1.88,0,0,0,281.88,301.45Z"/><path class="cls-3" d="M299.18,429.63a1.89,1.89,0,0,0-1.92-1.87l-12.52.16a1.9,1.9,0,0,0,0,3.79h0l12.53-.16A1.89,1.89,0,0,0,299.18,429.63Z"/><path class="cls-3" d="M214.35,473.59l8,8a1.88,1.88,0,0,0,1.34.55,1.85,1.85,0,0,0,1.33-.55,1.9,1.9,0,0,0,0-2.68l-8-8c14.55-12.41,18.08-28.15,10.5-46.79a1.9,1.9,0,0,0-1.22-1.11,1.93,1.93,0,0,0-1.63.27c-10.29,7.26-15.9,16-16.69,26a39.67,39.67,0,0,0,1.75,14.33l-22.26-22.26c11.2-11.26,12.66-24.64,4.31-39.79a1.84,1.84,0,0,0-1.34-.95,1.89,1.89,0,0,0-1.58.45c-10.61,9.55-11.58,20.3-10.53,27.63a34.18,34.18,0,0,0,.93,4.45l-11.06-11.06c-.1-.57-.2-1.14-.31-1.7C164.49,403,153.79,393,136.07,390.5l-.22,0a1.89,1.89,0,0,0-1.92,2.12c3.44,27.88,21,30.55,30.43,32l1.17.18,11.06,11.06a34.53,34.53,0,0,0-4.45-.93,31.15,31.15,0,0,0-7.73-.16c-6.2.66-13.34,3.4-19.9,10.69a1.88,1.88,0,0,0-.48,1.37,1.49,1.49,0,0,0,0,.21,1.92,1.92,0,0,0,1,1.35l1.2.64q9,4.69,17.19,4.69,11.68,0,21.4-9.65l22.26,22.26a39.73,39.73,0,0,0-14.33-1.75c-10,.79-18.75,6.4-26,16.7a1.9,1.9,0,0,0-.27,1.62,1.86,1.86,0,0,0,1.1,1.22A48.09,48.09,0,0,0,185.62,488C196.56,488,206.17,483.17,214.35,473.59Z"/><path class="cls-3" d="M172.08,464.91a1.91,1.91,0,0,0-1.9-1.87h0l-12.53.16a1.9,1.9,0,0,0,0,3.79h0l12.53-.16A1.9,1.9,0,0,0,172.08,464.91Z"/><path class="cls-3" d="M158.9,488.35a1.89,1.89,0,0,0-1.27,2.35l3.57,12a1.89,1.89,0,0,0,1.81,1.35,2,2,0,0,0,.54-.07,1.9,1.9,0,0,0,1.28-2.36l-3.57-12A1.9,1.9,0,0,0,158.9,488.35Z"/><path class="cls-3" d="M257.36,465.07a1.9,1.9,0,0,0-1.28,2.36l3.57,12a1.9,1.9,0,0,0,1.82,1.35,2,2,0,0,0,.54-.08,1.89,1.89,0,0,0,1.27-2.35l-3.57-12A1.89,1.89,0,0,0,257.36,465.07Z"/><path class="cls-3" d="M227.72,503.73a1.88,1.88,0,0,0,1.81,1.35,1.68,1.68,0,0,0,.54-.08,1.9,1.9,0,0,0,1.28-2.35l-3.58-12a1.89,1.89,0,0,0-3.63,1.08Z"/><path class="cls-3" d="M206.63,433a1.91,1.91,0,0,0,1.9-1.87l.15-12.53a1.88,1.88,0,0,0-1.86-1.92h0a1.89,1.89,0,0,0-1.89,1.87l-.16,12.53a1.9,1.9,0,0,0,1.87,1.92Z"/><path class="cls-3" d="M150.52,429.63a1.89,1.89,0,0,0-1.92-1.87h0l-12.52.16a1.9,1.9,0,0,0,0,3.79h0l12.53-.16A1.9,1.9,0,0,0,150.52,429.63Z"/><path class="cls-3" d="M174.6,539.16A37.47,37.47,0,0,0,187,536.88a1.93,1.93,0,0,0,1.09-1l.15,0a1.92,1.92,0,0,0,1.21-1.05c7-15.49,3.37-29-10.79-40.13a1.87,1.87,0,0,0-2.88.69c-5,10.77-3.59,19.69-.75,26-6.08-3.42-14.9-5.7-26.14-1.59a1.87,1.87,0,0,0-1.15,1.18,1.92,1.92,0,0,0,.21,1.63C155.12,533.63,164.05,539.16,174.6,539.16Z"/><path class="cls-3" d="M240.2,536.91a39.73,39.73,0,0,0-14.33,1.75l22.26-22.26q9.69,9.65,21.4,9.65,8.69,0,18.4-5.34a1.91,1.91,0,0,0,.95-1.34,1.87,1.87,0,0,0-.46-1.58c-9.55-10.61-20.3-11.59-27.63-10.54a36.27,36.27,0,0,0-4.45.94l11.06-11.06c18.4-3,29-13.85,31.6-32.14a1.9,1.9,0,0,0-2.11-2.14c-27.87,3.43-30.55,21-32,30.43l-.18,1.17L253.67,505.5a38.09,38.09,0,0,0,.93-4.44c1.05-7.33.07-18.08-10.54-27.63a1.93,1.93,0,0,0-1.58-.46,1.9,1.9,0,0,0-1.34,1c-8.35,15.15-6.89,28.53,4.31,39.79L223.2,536a39.73,39.73,0,0,0,1.74-14.33c-.78-10-6.4-18.75-16.69-26a1.9,1.9,0,0,0-2.85.83c-7.58,18.65-4.05,34.38,10.51,46.8l-8,8a1.9,1.9,0,0,0,1.34,3.23,1.9,1.9,0,0,0,1.34-.56l8-8c8.18,9.59,17.79,14.39,28.72,14.39a48.07,48.07,0,0,0,18.08-3.88,1.9,1.9,0,0,0,.83-2.85C259,543.31,250.2,537.7,240.2,536.91Z"/><path class="cls-3" d="M245.37,435.79a1.76,1.76,0,0,0,.86-.21,1.88,1.88,0,0,0,.83-2.54l-5.38-10.51a1.89,1.89,0,1,0-3.37,1.72l5.38,10.51A1.88,1.88,0,0,0,245.37,435.79Z"/><path class="cls-3" d="M296.84,504.06a1.9,1.9,0,0,0,0-3.79l-12.53-.15h0a1.89,1.89,0,0,0,0,3.78l12.53.16Z"/><path class="cls-3" d="M281.88,450.11c1.31-16.95-6.7-28.42-23.8-34.08a1.9,1.9,0,0,0-2.48,1.63c-1,11.63,3.18,19.47,7.91,24.49-6.78-1.12-15.58-.26-24.62,7a1.88,1.88,0,0,0,0,3c7.29,5.72,14.54,8.58,21.68,8.58,6.73,0,13.37-2.54,19.87-7.62a1.87,1.87,0,0,0,.72-1.42,1.47,1.47,0,0,0,0-.21A1.93,1.93,0,0,0,281.88,450.11Z"/><path class="cls-3" d="M-14.18-55a1.89,1.89,0,0,0-.55,1.58c3.43,27.87,21,30.55,30.43,32l1.17.18L27.93-10.16a36.7,36.7,0,0,0-4.45-.93C16.14-12.14,5.4-11.16-4.15-.56A1.89,1.89,0,0,0-4.61,1a1.91,1.91,0,0,0,1,1.34Q6,7.71,14.73,7.71c7.79,0,15-3.22,21.41-9.65L58.4,20.31a39.73,39.73,0,0,0-14.33-1.74c-10,.78-18.75,6.4-26,16.69a1.9,1.9,0,0,0,.83,2.85A48.06,48.06,0,0,0,37,42C47.9,42,57.51,37.18,65.69,27.6l8,8a1.89,1.89,0,1,0,2.67-2.68l-8-8C82.92,12.51,86.45-3.22,78.87-21.87A1.88,1.88,0,0,0,77.65-23,1.85,1.85,0,0,0,76-22.7c-10.29,7.25-15.91,16-16.69,26a39.54,39.54,0,0,0,1.75,14.34L38.82-4.62C50-15.88,51.48-29.26,43.13-44.42a1.91,1.91,0,0,0-1.34-.95,1.87,1.87,0,0,0-1.58.46C29.6-35.37,28.62-24.62,29.67-17.28a38.09,38.09,0,0,0,.93,4.44l-11-11c-3-18.41-13.85-29-32.14-31.6A1.88,1.88,0,0,0-14.18-55Z"/><path class="cls-3" d="M23.42,18.93a1.9,1.9,0,0,0-1.9-1.87h0L9,17.22A1.89,1.89,0,0,0,9,21H9l12.53-.15A1.91,1.91,0,0,0,23.42,18.93Z"/><path class="cls-3" d="M10.24,42.36A1.89,1.89,0,0,0,9,44.72l3.57,12a1.89,1.89,0,0,0,1.81,1.36,2,2,0,0,0,.54-.08,1.89,1.89,0,0,0,1.28-2.35l-3.57-12A1.9,1.9,0,0,0,10.24,42.36Z"/><path class="cls-3" d="M108.7,19.09a1.88,1.88,0,0,0-1.28,2.35l3.57,12a1.9,1.9,0,0,0,1.82,1.35,1.68,1.68,0,0,0,.54-.08,1.88,1.88,0,0,0,1.27-2.35l-3.57-12A1.89,1.89,0,0,0,108.7,19.09Z"/><path class="cls-3" d="M80.87,59.1a2,2,0,0,0,.54-.08,1.89,1.89,0,0,0,1.27-2.36l-3.57-12a1.89,1.89,0,0,0-3.63,1.07l3.57,12A1.9,1.9,0,0,0,80.87,59.1Z"/><path class="cls-3" d="M128.21,90.49a1.89,1.89,0,0,0-2-1.79l-12.51.68a1.89,1.89,0,0,0,.1,3.78h.1l12.51-.68A1.89,1.89,0,0,0,128.21,90.49Z"/><path class="cls-3" d="M-.95,75a1.91,1.91,0,0,0,.21,1.63c7.19,11,16.13,16.53,26.68,16.53A37.37,37.37,0,0,0,38.3,90.89a1.85,1.85,0,0,0,1.09-1l.16,0a1.88,1.88,0,0,0,1.21-1c7-15.5,3.37-29-10.79-40.14a1.86,1.86,0,0,0-1.61-.35,1.91,1.91,0,0,0-1.28,1c-5,10.77-3.58,19.7-.74,26.05C20.25,72,11.44,69.73.2,73.83A1.87,1.87,0,0,0-.95,75Z"/><path class="cls-3" d="M59.59,49.65a1.89,1.89,0,0,0-2.85.84c-7.58,18.64-4.05,34.38,10.5,46.79l-8,8a1.9,1.9,0,0,0,0,2.68,1.9,1.9,0,0,0,2.67,0l8-8c8.18,9.58,17.79,14.39,28.72,14.39a48.1,48.1,0,0,0,18.08-3.89,1.86,1.86,0,0,0,1.1-1.22,1.9,1.9,0,0,0-.27-1.62c-7.26-10.29-16-15.91-26-16.7a39.67,39.67,0,0,0-14.33,1.75L99.46,70.42q9.71,9.63,21.41,9.64,8.69,0,18.39-5.33a1.9,1.9,0,0,0,.5-2.93c-9.55-10.6-20.3-11.58-27.63-10.53a34.18,34.18,0,0,0-4.45.93l11.06-11.06c18.4-3,29-13.85,31.6-32.13a1.9,1.9,0,0,0-2.11-2.15c-27.87,3.44-30.55,21-32,30.43q-.09.62-.18,1.17L105,59.52a38.09,38.09,0,0,0,.93-4.44C107,47.74,106,37,95.4,27.44A1.89,1.89,0,0,0,93.82,27a1.86,1.86,0,0,0-1.34,1c-8.35,15.15-6.89,28.53,4.31,39.8L74.53,90a39.67,39.67,0,0,0,1.75-14.33C75.49,65.66,69.88,56.91,59.59,49.65Z"/><path class="cls-3" d="M148.17,58.08a1.9,1.9,0,0,0,0-3.79l-12.53-.16h0a1.9,1.9,0,0,0,0,3.79l12.53.16Z"/><path class="cls-3" d="M90.23,3.16a1.89,1.89,0,0,0,0,3c7.29,5.72,14.54,8.58,21.68,8.58,6.73,0,13.37-2.54,19.87-7.62a1.9,1.9,0,0,0,.72-1.42,1.61,1.61,0,0,0,0-.22,1.91,1.91,0,0,0,.7-1.33c1.31-16.95-6.7-28.42-23.8-34.07a1.92,1.92,0,0,0-1.63.21,1.94,1.94,0,0,0-.85,1.42c-1,11.63,3.18,19.47,7.91,24.48C108.07-5,99.27-4.1,90.23,3.16Z"/><path class="cls-3" d="M-.46,54.29-13,54.13A1.88,1.88,0,0,0-14.91,56,1.9,1.9,0,0,0-13,57.92l12.53.16h0A1.89,1.89,0,0,0,1.4,56.21,1.88,1.88,0,0,0-.46,54.29Z"/><path class="cls-3" d="M136.12,134.38l12.53-.16a1.89,1.89,0,0,0,0-3.78h0l-12.52.16a1.89,1.89,0,0,0,0,3.78Z"/><path class="cls-3" d="M-3.66,151q9.71,5.34,18.39,5.34c7.79,0,15-3.22,21.41-9.65L58.4,169a39.73,39.73,0,0,0-14.33-1.74c-10,.78-18.75,6.4-26,16.69a1.9,1.9,0,0,0,.83,2.85A48.06,48.06,0,0,0,37,190.65c10.94,0,20.55-4.81,28.73-14.39l8,8a1.89,1.89,0,1,0,2.67-2.67l-8-8c14.56-12.42,18.09-28.15,10.51-46.8A1.9,1.9,0,0,0,76,126c-10.29,7.26-15.91,16-16.69,26a39.51,39.51,0,0,0,1.75,14.33L38.82,144c9-9.06,11.72-19.5,8.08-31.13,0-.16-.11-.32-.16-.49s-.2-.61-.31-.92a46.27,46.27,0,0,0-2.5-5.74v0l-.79-1.48a1.91,1.91,0,0,0-1.34-.95,1.87,1.87,0,0,0-1.58.46c-8.62,7.76-10.88,16.31-10.86,23.17a32.59,32.59,0,0,0,.32,4.46,38.72,38.72,0,0,0,.93,4.45l-11-11.06c-3-18.41-13.85-29-32.14-31.6a1.91,1.91,0,0,0-1.59.53,1.84,1.84,0,0,0-.56,1.36,1.62,1.62,0,0,0,0,.22q.36,2.91.92,5.47c4.47,20.67,17.91,24.56,26.91,26.1.92.16,1.79.29,2.6.42l1.17.18,11.05,11a38.09,38.09,0,0,0-4.44-.93c-7.33-1-18.08-.07-27.63,10.54a1.87,1.87,0,0,0-.46,1.58A1.91,1.91,0,0,0-3.66,151Z"/><path class="cls-3" d="M9,169.67H9l12.53-.16a1.91,1.91,0,0,0,1.87-1.92,1.88,1.88,0,0,0-1.92-1.87L9,165.88a1.9,1.9,0,0,0,0,3.79Z"/><path class="cls-3" d="M10.24,191A1.9,1.9,0,0,0,9,193.38l3.57,12a1.89,1.89,0,0,0,1.81,1.35,1.68,1.68,0,0,0,.54-.08,1.89,1.89,0,0,0,1.28-2.35l-3.57-12A1.9,1.9,0,0,0,10.24,191Z"/><path class="cls-3" d="M108.7,167.75a1.89,1.89,0,0,0-1.28,2.35l3.57,12a1.91,1.91,0,0,0,1.82,1.36,2,2,0,0,0,.54-.08,1.9,1.9,0,0,0,1.27-2.36l-3.57-12A1.89,1.89,0,0,0,108.7,167.75Z"/><path class="cls-3" d="M80.87,207.76a2,2,0,0,0,.54-.08,1.89,1.89,0,0,0,1.27-2.35l-3.57-12a1.89,1.89,0,1,0-3.63,1.08l3.57,12A1.9,1.9,0,0,0,80.87,207.76Z"/><path class="cls-3" d="M128.21,239.15a1.9,1.9,0,0,0-2-1.79l-12.51.68a1.89,1.89,0,0,0,.1,3.78h.1l12.51-.68A1.89,1.89,0,0,0,128.21,239.15Z"/><path class="cls-3" d="M56.24,121.22l-.16,12.53A1.89,1.89,0,0,0,58,135.66h0a1.88,1.88,0,0,0,1.89-1.87L60,121.26a1.89,1.89,0,1,0-3.78,0Z"/><path class="cls-3" d="M1.86,132.3A1.89,1.89,0,0,0,0,130.44h0l-12.53.16a1.9,1.9,0,0,0-1.87,1.91,1.9,1.9,0,0,0,1.9,1.87h0L0,134.22A1.89,1.89,0,0,0,1.86,132.3Z"/><path class="cls-3" d="M140.22,222.05a2,2,0,0,0-.46-1.59c-9.55-10.6-20.3-11.58-27.63-10.53a35.91,35.91,0,0,0-4.45.93l11.06-11.06c18.4-3,29-13.84,31.6-32.13a1.91,1.91,0,0,0-.53-1.59,1.86,1.86,0,0,0-1.58-.55c-27.87,3.43-30.55,21-32,30.42-.06.41-.12.8-.18,1.18l-11,11.05a38.09,38.09,0,0,0,.93-4.44c1-7.34.07-18.09-10.54-27.63a1.89,1.89,0,0,0-2.92.49c-8.35,15.16-6.89,28.53,4.31,39.8L74.53,238.65a39.67,39.67,0,0,0,1.75-14.33c-.79-10-6.4-18.75-16.69-26a1.89,1.89,0,0,0-2.85.84c-7.58,18.65-4.05,34.38,10.5,46.79l-8,8a1.9,1.9,0,0,0,0,2.68,1.9,1.9,0,0,0,2.67,0l8-8C78.1,258.2,87.71,263,98.64,263a48.07,48.07,0,0,0,18.08-3.88,1.9,1.9,0,0,0,.83-2.85c-7.26-10.29-16-15.91-26-16.7a40,40,0,0,0-14.33,1.75l22.25-22.25q9.71,9.64,21.41,9.65,8.69,0,18.39-5.34A1.9,1.9,0,0,0,140.22,222.05Z"/><path class="cls-3" d="M-.95,223.67a1.94,1.94,0,0,0,.21,1.64c7.19,11,16.13,16.52,26.68,16.52a37.37,37.37,0,0,0,12.36-2.28,1.82,1.82,0,0,0,1.09-1l.16,0a1.88,1.88,0,0,0,1.21-1c7-15.5,3.37-29-10.79-40.14a1.9,1.9,0,0,0-2.89.69c-5,10.77-3.58,19.7-.74,26.05-6.09-3.42-14.9-5.7-26.14-1.6A1.87,1.87,0,0,0-.95,223.67Z"/><path class="cls-3" d="M93,125.2a1.89,1.89,0,1,0-3.37,1.73L95,137.44a1.91,1.91,0,0,0,1.69,1,1.88,1.88,0,0,0,.86-.21,1.91,1.91,0,0,0,.83-2.55Z"/><path class="cls-3" d="M148.17,206.74a1.9,1.9,0,0,0,0-3.79l-12.53-.16a1.9,1.9,0,0,0,0,3.79l12.53.16Z"/><path class="cls-3" d="M90.23,151.82a1.91,1.91,0,0,0-.71,1.49,1.88,1.88,0,0,0,.73,1.48c7.29,5.72,14.54,8.58,21.68,8.58,6.73,0,13.37-2.54,19.87-7.62a1.87,1.87,0,0,0,.72-1.42,1.62,1.62,0,0,0,0-.22,1.9,1.9,0,0,0,.7-1.32c1.31-17-6.7-28.42-23.8-34.08a1.92,1.92,0,0,0-1.63.21,1.94,1.94,0,0,0-.85,1.42c-1,11.63,3.18,19.47,7.91,24.49C108.07,143.7,99.27,144.56,90.23,151.82Z"/><path class="cls-3" d="M-.46,203-13,202.79a1.89,1.89,0,0,0-1.92,1.87A1.9,1.9,0,0,0-13,206.58l12.53.16h0a1.88,1.88,0,0,0,1.89-1.87A1.88,1.88,0,0,0-.46,203Z"/><path class="cls-3" d="M-88.08,108.51a1.88,1.88,0,0,0,1.34-.55l56.82-56.82c18.4-3,29-13.85,31.59-32.13a1.89,1.89,0,0,0-.52-1.6,1.93,1.93,0,0,0-1.58-.55c-27.88,3.44-30.55,21-32,30.43q-.09.62-.18,1.17l-56.82,56.82a1.9,1.9,0,0,0,0,2.68A1.89,1.89,0,0,0-88.08,108.51Z"/><path class="cls-3" d="M-3.66,299.69Q6,305,14.74,305c7.78,0,14.94-3.22,21.4-9.65L58.4,317.64a39.51,39.51,0,0,0-14.33-1.75c-10,.78-18.75,6.4-26,16.69a1.9,1.9,0,0,0,.83,2.85A48.07,48.07,0,0,0,37,339.31c10.93,0,20.54-4.81,28.72-14.38l8,8a1.9,1.9,0,0,0,2.67,0,1.9,1.9,0,0,0,0-2.68l-8-8c14.56-12.41,18.09-28.15,10.51-46.8a1.9,1.9,0,0,0-2.85-.83c-10.29,7.26-15.91,16-16.69,26A39.51,39.51,0,0,0,61.08,315L38.82,292.7c11.2-11.26,12.66-24.64,4.31-39.79a1.9,1.9,0,0,0-1.34-1,1.93,1.93,0,0,0-1.58.46c-8.62,7.76-10.88,16.31-10.86,23.18a32.44,32.44,0,0,0,.32,4.45,37.84,37.84,0,0,0,.93,4.45l-11-11.06c-3-18.4-13.85-29-32.14-31.59a1.88,1.88,0,0,0-1.59.52,1.84,1.84,0,0,0-.56,1.36,1.55,1.55,0,0,0,0,.22,58.58,58.58,0,0,0,1.52,8c4.62,17.14,15.87,21.52,24.36,23.24l.15,0h0c1.58.32,3.06.55,4.39.75l1.17.18,11.05,11.06a36.1,36.1,0,0,0-4.44-.94c-7.33-1-18.08-.07-27.63,10.54a1.87,1.87,0,0,0-.46,1.58A1.91,1.91,0,0,0-3.66,299.69Z"/><path class="cls-3" d="M9,318.33H9l12.53-.16a1.9,1.9,0,0,0,0-3.79h0L9,314.54a1.9,1.9,0,0,0,0,3.79Z"/><path class="cls-3" d="M10.24,339.68A1.9,1.9,0,0,0,9,342l3.57,12a1.89,1.89,0,0,0,1.81,1.35,1.68,1.68,0,0,0,.54-.08A1.89,1.89,0,0,0,16.17,353L12.6,341A1.91,1.91,0,0,0,10.24,339.68Z"/><path class="cls-3" d="M108.7,316.41a1.89,1.89,0,0,0-1.28,2.35l3.57,12a1.9,1.9,0,0,0,1.82,1.36,2,2,0,0,0,.54-.08,1.89,1.89,0,0,0,1.27-2.36l-3.57-12A1.89,1.89,0,0,0,108.7,316.41Z"/><path class="cls-3" d="M79.11,342a1.89,1.89,0,1,0-3.63,1.08l3.57,12a1.9,1.9,0,0,0,1.82,1.35,1.68,1.68,0,0,0,.54-.08A1.89,1.89,0,0,0,82.68,354Z"/><path class="cls-3" d="M128.21,387.81a1.89,1.89,0,0,0-2-1.79l-12.51.68a1.89,1.89,0,0,0,.1,3.78h.1l12.51-.68A1.89,1.89,0,0,0,128.21,387.81Z"/><path class="cls-3" d="M56.24,269.88l-.16,12.53A1.89,1.89,0,0,0,58,284.32h0a1.88,1.88,0,0,0,1.89-1.87L60,269.93a1.89,1.89,0,1,0-3.78-.05Z"/><path class="cls-3" d="M1.86,281A1.89,1.89,0,0,0,0,279.1h0l-12.53.16a1.9,1.9,0,0,0-1.87,1.91,1.9,1.9,0,0,0,1.9,1.87h0L0,282.88A1.89,1.89,0,0,0,1.86,281Z"/><path class="cls-3" d="M140.22,370.71a1.93,1.93,0,0,0-.46-1.58c-9.55-10.61-20.3-11.59-27.63-10.54a37.84,37.84,0,0,0-4.45.93l11.06-11c18.4-3,29-13.85,31.6-32.14a1.91,1.91,0,0,0-.53-1.59,1.89,1.89,0,0,0-1.58-.55c-27.87,3.43-30.55,21-32,30.43q-.09.6-.18,1.17l-11,11a38.09,38.09,0,0,0,.93-4.44c1-7.34.07-18.09-10.54-27.63a1.87,1.87,0,0,0-1.58-.46,1.91,1.91,0,0,0-1.34.95c-8.35,15.16-6.89,28.54,4.31,39.8L74.53,387.32A39.73,39.73,0,0,0,76.28,373c-.78-10-6.4-18.76-16.69-26a1.9,1.9,0,0,0-2.85.83c-7.58,18.65-4.05,34.38,10.5,46.8l-8,8a1.89,1.89,0,1,0,2.67,2.68l8-8c8.18,9.58,17.79,14.39,28.72,14.39a48.07,48.07,0,0,0,18.08-3.88,1.9,1.9,0,0,0,.83-2.85c-7.26-10.29-16-15.91-26-16.69A39.51,39.51,0,0,0,77.21,390l22.25-22.26q9.71,9.64,21.41,9.65,8.69,0,18.39-5.34A1.9,1.9,0,0,0,140.22,370.71Z"/><path class="cls-3" d="M-.95,372.33A1.94,1.94,0,0,0-.74,374c7.19,11,16.13,16.52,26.68,16.52a37.34,37.34,0,0,0,12.36-2.27,1.87,1.87,0,0,0,1.09-1l.16,0a1.88,1.88,0,0,0,1.21-1c7-15.5,3.37-29-10.79-40.13a1.9,1.9,0,0,0-1.61-.36,1.94,1.94,0,0,0-1.28,1c-5,10.77-3.58,19.7-.74,26.05-6.08-3.42-14.9-5.7-26.14-1.6A1.9,1.9,0,0,0-.95,372.33Z"/><path class="cls-3" d="M96.71,287.13a1.88,1.88,0,0,0,.86-.21,1.9,1.9,0,0,0,.83-2.55L93,273.86a1.89,1.89,0,1,0-3.37,1.73L95,286.1A1.91,1.91,0,0,0,96.71,287.13Z"/><path class="cls-3" d="M148.17,355.4a1.9,1.9,0,0,0,0-3.79l-12.53-.16h0a1.9,1.9,0,0,0,0,3.79l12.53.16Z"/><path class="cls-3" d="M133.22,301.45c1.31-17-6.7-28.42-23.8-34.08a1.9,1.9,0,0,0-2.48,1.63c-1,11.63,3.18,19.47,7.91,24.49-6.78-1.12-15.58-.27-24.62,7a1.91,1.91,0,0,0-.71,1.49,1.88,1.88,0,0,0,.73,1.48c7.29,5.72,14.54,8.58,21.68,8.58,6.73,0,13.37-2.54,19.87-7.62a1.87,1.87,0,0,0,.72-1.42,1.62,1.62,0,0,0,0-.22A1.88,1.88,0,0,0,133.22,301.45Z"/><path class="cls-3" d="M-.46,351.61-13,351.45h0a1.9,1.9,0,0,0-1.89,1.87A1.89,1.89,0,0,0-13,355.24l12.53.16h0a1.88,1.88,0,0,0,1.89-1.87A1.89,1.89,0,0,0-.46,351.61Z"/><path class="cls-3" d="M-88.08,257.17a1.88,1.88,0,0,0,1.34-.55l56.82-56.82c18.4-3,29-13.84,31.59-32.13a1.88,1.88,0,0,0-.52-1.59,1.87,1.87,0,0,0-1.58-.55c-27.88,3.43-30.55,21-32,30.42-.06.41-.12.8-.18,1.18l-56.82,56.81a1.9,1.9,0,0,0,0,2.68A1.89,1.89,0,0,0-88.08,257.17Z"/><path class="cls-3" d="M65.69,473.59l8,8a1.9,1.9,0,0,0,2.67,0,1.9,1.9,0,0,0,0-2.68l-8-8c14.56-12.41,18.09-28.15,10.51-46.79A1.9,1.9,0,0,0,77.65,423a1.92,1.92,0,0,0-1.63.27c-10.29,7.26-15.9,16-16.69,26a39.48,39.48,0,0,0,1.75,14.33L38.82,441.36c11.2-11.26,12.66-24.64,4.31-39.79a1.86,1.86,0,0,0-1.34-.95,1.89,1.89,0,0,0-1.58.45c-10.61,9.55-11.59,20.3-10.54,27.63a37.84,37.84,0,0,0,.93,4.45l-11-11.06c-3-18.4-13.85-29-32.14-31.59a1.91,1.91,0,0,0-1.59.52,1.91,1.91,0,0,0-.55,1.58c3.43,27.88,21,30.55,30.43,32l1.17.18,11.05,11.06a34.37,34.37,0,0,0-4.44-.93c-7.34-1-18.08-.08-27.63,10.53A1.87,1.87,0,0,0-4.61,447a1.93,1.93,0,0,0,1,1.35Q6,453.7,14.73,453.69c7.79,0,15-3.22,21.41-9.65L58.4,466.3a39.73,39.73,0,0,0-14.33-1.75c-10,.79-18.75,6.4-26,16.7a1.9,1.9,0,0,0-.27,1.62,1.86,1.86,0,0,0,1.1,1.22A48.09,48.09,0,0,0,37,488C47.9,488,57.51,483.17,65.69,473.59Z"/><path class="cls-3" d="M23.42,464.91a1.91,1.91,0,0,0-1.9-1.87h0L9,463.2A1.9,1.9,0,0,0,9,467H9l12.53-.16A1.9,1.9,0,0,0,23.42,464.91Z"/><path class="cls-3" d="M10.24,488.35A1.89,1.89,0,0,0,9,490.7l3.57,12a1.89,1.89,0,0,0,1.81,1.35,2,2,0,0,0,.54-.07,1.9,1.9,0,0,0,1.28-2.36l-3.57-12A1.9,1.9,0,0,0,10.24,488.35Z"/><path class="cls-3" d="M108.7,465.07a1.89,1.89,0,0,0-1.28,2.36l3.57,12a1.9,1.9,0,0,0,1.82,1.35,2,2,0,0,0,.54-.08,1.89,1.89,0,0,0,1.27-2.35l-3.57-12A1.89,1.89,0,0,0,108.7,465.07Z"/><path class="cls-3" d="M79.05,503.73a1.9,1.9,0,0,0,1.82,1.35,1.68,1.68,0,0,0,.54-.08,1.88,1.88,0,0,0,1.27-2.35l-3.57-12a1.89,1.89,0,0,0-3.63,1.08Z"/><path class="cls-3" d="M58,433a1.89,1.89,0,0,0,1.89-1.87L60,418.59a1.89,1.89,0,1,0-3.78,0l-.16,12.53A1.9,1.9,0,0,0,58,433Z"/><path class="cls-3" d="M1.86,429.63A1.89,1.89,0,0,0,0,427.76h0l-12.53.16a1.9,1.9,0,0,0-1.87,1.92,1.91,1.91,0,0,0,1.9,1.87h0L0,431.55A1.9,1.9,0,0,0,1.86,429.63Z"/><path class="cls-3" d="M-.95,521a1.92,1.92,0,0,0,.21,1.63c7.19,11,16.13,16.53,26.68,16.53a37.37,37.37,0,0,0,12.36-2.28,1.87,1.87,0,0,0,1.09-1l.16,0a1.92,1.92,0,0,0,1.21-1.05c7-15.49,3.37-29-10.79-40.13a1.9,1.9,0,0,0-1.61-.36,1.93,1.93,0,0,0-1.28,1.05c-5,10.77-3.58,19.69-.74,26-6.09-3.42-14.9-5.7-26.14-1.59A1.85,1.85,0,0,0-.95,521Z"/><path class="cls-3" d="M91.54,536.91a39.7,39.7,0,0,0-14.33,1.75L99.46,516.4c6.46,6.43,13.62,9.65,21.41,9.65q8.69,0,18.39-5.34a1.9,1.9,0,0,0,1-1.34,1.93,1.93,0,0,0-.46-1.58c-9.55-10.61-20.3-11.58-27.63-10.54a35.87,35.87,0,0,0-4.45.94l11.06-11.06c18.4-3,29-13.85,31.6-32.14a1.91,1.91,0,0,0-.53-1.59,1.89,1.89,0,0,0-1.58-.55c-27.87,3.43-30.55,21-32,30.43q-.09.6-.18,1.17L105,505.5a38.09,38.09,0,0,0,.93-4.44c1-7.33.07-18.08-10.54-27.63a1.93,1.93,0,0,0-1.58-.46,1.9,1.9,0,0,0-1.34,1c-8.35,15.15-6.89,28.53,4.31,39.79L74.53,536a39.73,39.73,0,0,0,1.75-14.33c-.78-10-6.4-18.75-16.69-26a1.93,1.93,0,0,0-1.63-.27,1.91,1.91,0,0,0-1.22,1.1c-7.58,18.65-4.05,34.38,10.5,46.8l-8,8a1.89,1.89,0,1,0,2.67,2.67l8-8c8.18,9.59,17.79,14.39,28.72,14.39a48.11,48.11,0,0,0,18.08-3.88,1.9,1.9,0,0,0,.83-2.85C110.29,543.31,101.54,537.7,91.54,536.91Z"/><path class="cls-3" d="M96.71,435.79a1.76,1.76,0,0,0,.86-.21A1.89,1.89,0,0,0,98.4,433L93,422.53a1.89,1.89,0,1,0-3.37,1.72L95,434.76A1.89,1.89,0,0,0,96.71,435.79Z"/><path class="cls-3" d="M148.17,504.06a1.9,1.9,0,0,0,0-3.79l-12.53-.15h0a1.89,1.89,0,0,0,0,3.78l12.53.16Z"/><path class="cls-3" d="M133.22,450.11c1.31-16.95-6.7-28.42-23.8-34.08a1.9,1.9,0,0,0-2.48,1.63c-1,11.63,3.18,19.47,7.91,24.49-6.78-1.12-15.58-.27-24.62,7a1.88,1.88,0,0,0,0,3c7.29,5.72,14.54,8.58,21.68,8.58,6.73,0,13.37-2.54,19.87-7.62a1.87,1.87,0,0,0,.72-1.42,1.47,1.47,0,0,0,0-.21A1.93,1.93,0,0,0,133.22,450.11Z"/><path class="cls-3" d="M1.67,465a1.88,1.88,0,0,0-.52-1.59,1.9,1.9,0,0,0-1.58-.55c-27.88,3.43-30.55,21-32,30.43q-.09.6-.18,1.17l-56.82,56.82a1.88,1.88,0,0,0,0,2.67,1.9,1.9,0,0,0,1.34.56,1.89,1.89,0,0,0,1.34-.56l56.82-56.81C-11.52,494.09-.89,483.28,1.67,465Z"/><path class="cls-3" d="M-13,503.9l12.53.16h0a1.88,1.88,0,0,0,1.89-1.87,1.9,1.9,0,0,0-1.86-1.92L-13,500.12h0A1.89,1.89,0,0,0-14.91,502,1.89,1.89,0,0,0-13,503.9Z"/><path class="cls-3" d="M-88.08,405.84a1.89,1.89,0,0,0,1.34-.56l56.82-56.81c18.4-3,29-13.85,31.59-32.14a1.88,1.88,0,0,0-.52-1.59,1.9,1.9,0,0,0-1.58-.55c-27.88,3.43-30.55,21-32,30.43q-.09.6-.18,1.17L-89.42,402.6a1.9,1.9,0,0,0,0,2.68A1.9,1.9,0,0,0-88.08,405.84Z"/></g></svg>