<svg id="Layer_1" data-name="Layer 1" xmlns="http://www.w3.org/2000/svg" xmlns:xlink="http://www.w3.org/1999/xlink" viewBox="0 0 252 432"><defs><style>.cls-1{fill:none;}.cls-2{fill:#4fc69b;}.cls-3{clip-path:url(#clip-path);}.cls-4{fill:#50b58c;}</style><clipPath id="clip-path"><rect class="cls-1" y="-1.35" width="252" height="434.7"/></clipPath></defs><rect class="cls-2" width="252" height="432"/><g class="cls-3"><path class="cls-4" d="M129.42-48.34a1.58,1.58,0,0,0-1.16.46,1.59,1.59,0,0,0-.47,1.34c1.68,13.64,7.36,20.15,13.4,23.46l.94.49h0a35,35,0,0,0,10,2.9l1.39.22,1,.15,9.36,9.36a30,30,0,0,0-3.76-.79c-6.21-.89-15.31-.06-23.39,8.92a1.6,1.6,0,0,0-.39,1.34,1.62,1.62,0,0,0,.81,1.14q8.21,4.51,15.57,4.52c6.59,0,12.65-2.73,18.12-8.17L189.7,15.85a33.54,33.54,0,0,0-12.13-1.48c-8.47.66-15.88,5.42-22,14.13a1.61,1.61,0,0,0-.23,1.38,1.58,1.58,0,0,0,.94,1,40.71,40.71,0,0,0,15.3,3.29c9.25,0,17.39-4.07,24.31-12.18l6.77,6.77a1.64,1.64,0,0,0,1.14.47,1.61,1.61,0,0,0,1.13-2.74l-6.77-6.77C210.46,9.24,213.45-4.08,207-19.86a1.58,1.58,0,0,0-1-.94,1.61,1.61,0,0,0-1.38.23c-8.71,6.14-13.46,13.55-14.13,22A33.54,33.54,0,0,0,192,13.58L173.13-5.26c9.48-9.54,10.72-20.86,3.65-33.69a1.62,1.62,0,0,0-1.14-.81,1.6,1.6,0,0,0-1.34.39c-9,8.08-9.8,17.18-8.92,23.39a32.47,32.47,0,0,0,.79,3.77l-9.36-9.37c-.16-1-.35-1.92-.56-2.84-3.18-13.84-12.13-21.87-26.64-23.91Z"/><path class="cls-4" d="M160.09,14.68a1.61,1.61,0,0,0-1.61-1.59h0l-10.6.14a1.6,1.6,0,0,0,0,3.2h0l10.6-.13A1.61,1.61,0,0,0,160.09,14.68Z"/><path class="cls-4" d="M148.93,34.51a1.61,1.61,0,0,0-1.08,2l3,10.16a1.59,1.59,0,0,0,1.53,1.15,1.47,1.47,0,0,0,.46-.07,1.6,1.6,0,0,0,1.08-2l-3-10.17A1.61,1.61,0,0,0,148.93,34.51Z"/><path class="cls-4" d="M232.28,14.81a1.6,1.6,0,0,0-1.08,2l3,10.17a1.6,1.6,0,0,0,1.53,1.15,1.83,1.83,0,0,0,.46-.07,1.61,1.61,0,0,0,1.08-2l-3-10.16A1.61,1.61,0,0,0,232.28,14.81Z"/><path class="cls-4" d="M208.72,48.68a1.82,1.82,0,0,0,.46-.06,1.61,1.61,0,0,0,1.08-2l-3-10.16a1.61,1.61,0,0,0-3.08.91l3,10.17A1.59,1.59,0,0,0,208.72,48.68Z"/><path class="cls-4" d="M248.8,75.26a1.59,1.59,0,0,0-1.68-1.52l-10.59.57a1.61,1.61,0,0,0,.08,3.21h.09l10.59-.58A1.6,1.6,0,0,0,248.8,75.26Z"/><path class="cls-4" d="M139.46,62.15a1.59,1.59,0,0,0,.18,1.39c6.09,9.31,13.65,14,22.58,14a31.83,31.83,0,0,0,10.47-1.93,1.59,1.59,0,0,0,.92-.84l.14,0a1.57,1.57,0,0,0,1-.88c5.92-13.12,2.85-24.55-9.13-34a1.61,1.61,0,0,0-2.45.58c-4.26,9.12-3,16.68-.63,22.06-5.15-2.9-12.61-4.83-22.13-1.36A1.6,1.6,0,0,0,139.46,62.15Z"/><path class="cls-4" d="M190.71,40.69a1.6,1.6,0,0,0-2.41.7c-6.42,15.79-3.43,29.11,8.89,39.62l-6.77,6.77a1.61,1.61,0,0,0,1.13,2.74,1.64,1.64,0,0,0,1.14-.47l6.77-6.78c6.92,8.12,15,12.19,24.31,12.19a40.75,40.75,0,0,0,15.3-3.29,1.6,1.6,0,0,0,.71-2.41c-6.15-8.71-13.55-13.47-22-14.14a33.73,33.73,0,0,0-12.13,1.49l18.84-18.85c5.47,5.45,11.53,8.17,18.12,8.17q7.35,0,15.57-4.52a1.59,1.59,0,0,0,.42-2.47c-8.08-9-17.18-9.81-23.39-8.92a30.13,30.13,0,0,0-3.77.79L240.78,42c15.59-2.57,24.59-11.73,26.75-27.21a1.61,1.61,0,0,0-.44-1.35,1.58,1.58,0,0,0-1.34-.46c-23.59,2.9-25.86,17.77-27.08,25.76q-.07.51-.15,1L229.16,49a31.86,31.86,0,0,0,.79-3.76c.88-6.21.06-15.31-8.92-23.39a1.57,1.57,0,0,0-1.34-.39,1.6,1.6,0,0,0-1.14.8c-7.07,12.83-5.83,24.16,3.65,33.69L203.36,74.84a33.6,33.6,0,0,0,1.48-12.14C204.17,54.24,199.42,46.83,190.71,40.69Z"/><path class="cls-4" d="M216.65,1.33a1.59,1.59,0,0,0-.6,1.25,1.63,1.63,0,0,0,.61,1.26Q225.93,11.1,235,11.1c5.7,0,11.32-2.15,16.82-6.45a1.61,1.61,0,0,0,.61-1.2,1.2,1.2,0,0,0,0-.19A1.58,1.58,0,0,0,253,2.14c1.11-14.35-5.67-24.06-20.14-28.85a1.61,1.61,0,0,0-1.38.19,1.56,1.56,0,0,0-.72,1.19c-.89,9.85,2.69,16.48,6.69,20.73C231.75-5.55,224.3-4.82,216.65,1.33Z"/><path class="cls-4" d="M176.78,86.9a1.62,1.62,0,0,0-2.48-.42q-1.17,1.06-2.16,2.13a25.18,25.18,0,0,0-6.76,21.27,31.86,31.86,0,0,0,.79,3.76l-9.36-9.36a40.68,40.68,0,0,0-2.14-8.07c-.31-.82-.65-1.61-1-2.38-.18-.38-.37-.76-.57-1.13-4.49-8.52-12.35-13.61-23.47-15.17l-.19,0a1.62,1.62,0,0,0-1.16.46,1.64,1.64,0,0,0-.48,1.16,1.09,1.09,0,0,0,0,.18c.23,1.85.53,3.56.89,5.15,2.48,10.84,7.92,16.09,13.49,18.82l.38.18.11.05a31.37,31.37,0,0,0,7.34,2.28l.7.14h.08l.24,0,.12,0h0l.75.12,1.64.26.09,0,.9.14,9.36,9.35a31.91,31.91,0,0,0-3.76-.78c-6.21-.89-15.31-.06-23.39,8.92a1.6,1.6,0,0,0,.42,2.47q8.21,4.53,15.57,4.52c6.59,0,12.65-2.73,18.12-8.17L189.7,141.7a33.54,33.54,0,0,0-12.13-1.48c-8.47.67-15.87,5.42-22,14.14a1.59,1.59,0,0,0-.23,1.37,1.62,1.62,0,0,0,.94,1,40.69,40.69,0,0,0,15.3,3.28c9.25,0,17.39-4.07,24.31-12.18l6.77,6.78a1.64,1.64,0,0,0,1.14.47,1.6,1.6,0,0,0,1.13-.47,1.64,1.64,0,0,0,.47-1.14,1.6,1.6,0,0,0-.47-1.13l-6.77-6.77C210.46,135.1,213.45,121.78,207,106a1.57,1.57,0,0,0-1-.93,1.61,1.61,0,0,0-1.38.22c-8.71,6.15-13.46,13.56-14.13,22A33.6,33.6,0,0,0,192,139.44l-18.84-18.85C182.61,111.06,183.85,99.73,176.78,86.9Z"/><path class="cls-4" d="M160.09,140.53a1.6,1.6,0,0,0-1.61-1.58h0l-10.6.13a1.61,1.61,0,0,0,0,3.21h0l10.6-.14A1.61,1.61,0,0,0,160.09,140.53Z"/><path class="cls-4" d="M148.93,160.37a1.6,1.6,0,0,0-1.08,2l3,10.17a1.59,1.59,0,0,0,1.53,1.14,1.82,1.82,0,0,0,.46-.06,1.61,1.61,0,0,0,1.08-2l-3-10.16A1.61,1.61,0,0,0,148.93,160.37Z"/><path class="cls-4" d="M232.28,140.66a1.61,1.61,0,0,0-1.08,2l3,10.16a1.59,1.59,0,0,0,1.53,1.15,1.47,1.47,0,0,0,.46-.07,1.6,1.6,0,0,0,1.08-2l-3-10.17A1.61,1.61,0,0,0,232.28,140.66Z"/><path class="cls-4" d="M208.72,174.54a1.47,1.47,0,0,0,.46-.07,1.6,1.6,0,0,0,1.08-2l-3-10.17a1.61,1.61,0,0,0-3.08.91l3,10.17A1.59,1.59,0,0,0,208.72,174.54Z"/><path class="cls-4" d="M248.8,201.11a1.61,1.61,0,0,0-1.68-1.52l-10.59.58a1.6,1.6,0,0,0,.08,3.2h.09l10.59-.57A1.61,1.61,0,0,0,248.8,201.11Z"/><path class="cls-4" d="M189.47,99.69a1.6,1.6,0,0,0-1.6,1.58l-.13,10.61a1.59,1.59,0,0,0,1.58,1.62h0a1.59,1.59,0,0,0,1.6-1.58l.14-10.61a1.61,1.61,0,0,0-1.59-1.62Z"/><path class="cls-4" d="M259,186.63a1.61,1.61,0,0,0-.39-1.34c-8.08-9-17.18-9.8-23.39-8.92a32,32,0,0,0-3.77.79l9.36-9.36c15.59-2.57,24.59-11.72,26.75-27.2a1.6,1.6,0,0,0-1.78-1.82c-23.59,2.91-25.86,17.77-27.08,25.76q-.07.51-.15,1l-9.36,9.36a31.86,31.86,0,0,0,.79-3.76c.88-6.21.06-15.31-8.92-23.39a1.6,1.6,0,0,0-2.48.42c-7.07,12.83-5.83,24.15,3.65,33.69l-18.84,18.84a33.54,33.54,0,0,0,1.48-12.13c-.67-8.47-5.42-15.88-14.13-22a1.61,1.61,0,0,0-1.38-.23,1.58,1.58,0,0,0-1,.94c-6.42,15.78-3.43,29.1,8.89,39.61l-6.77,6.77a1.61,1.61,0,0,0,1.13,2.74,1.64,1.64,0,0,0,1.14-.47l6.77-6.77c6.92,8.11,15,12.18,24.31,12.18a40.56,40.56,0,0,0,15.3-3.29,1.58,1.58,0,0,0,.94-1,1.65,1.65,0,0,0-.23-1.38c-6.15-8.71-13.55-13.46-22-14.13A33.51,33.51,0,0,0,205.63,203l18.84-18.84c5.47,5.44,11.53,8.17,18.12,8.17q7.35,0,15.57-4.52A1.62,1.62,0,0,0,259,186.63Z"/><path class="cls-4" d="M139.46,188a1.57,1.57,0,0,0,.18,1.38c6.09,9.31,13.65,14,22.58,14a31.57,31.57,0,0,0,10.47-1.93,1.57,1.57,0,0,0,.92-.83l.14,0a1.6,1.6,0,0,0,1-.88c5.92-13.13,2.85-24.56-9.13-34a1.64,1.64,0,0,0-1.37-.3,1.62,1.62,0,0,0-1.08.88c-4.26,9.12-3,16.68-.63,22.05-5.15-2.89-12.61-4.82-22.13-1.35A1.58,1.58,0,0,0,139.46,188Z"/><path class="cls-4" d="M219,104.64a1.61,1.61,0,0,0-2.16-.69,1.59,1.59,0,0,0-.69,2.15l4.55,8.9a1.59,1.59,0,0,0,1.43.88,1.64,1.64,0,0,0,.73-.18,1.6,1.6,0,0,0,.69-2.16Z"/><path class="cls-4" d="M216.65,127.18a1.62,1.62,0,0,0-.6,1.26,1.6,1.6,0,0,0,.61,1.25Q225.93,137,235,137c5.7,0,11.32-2.15,16.82-6.45a1.65,1.65,0,0,0,.61-1.21,1.08,1.08,0,0,0,0-.18A1.6,1.6,0,0,0,253,128c1.11-14.36-5.67-24.06-20.14-28.85a1.6,1.6,0,0,0-2.1,1.38c-.89,9.85,2.69,16.48,6.69,20.73C231.75,120.31,224.3,121,216.65,127.18Z"/><path class="cls-4" d="M195.87,273.73l6.77,6.77a1.64,1.64,0,0,0,1.14.47,1.61,1.61,0,0,0,1.13-2.74l-6.77-6.77c12.32-10.51,15.31-23.83,8.89-39.62a1.59,1.59,0,0,0-1-.93,1.61,1.61,0,0,0-1.38.23c-8.71,6.14-13.46,13.55-14.13,22A33.54,33.54,0,0,0,192,265.29l-18.84-18.84c9.48-9.54,10.72-20.86,3.65-33.69a1.62,1.62,0,0,0-1.14-.81l-.18,0a1.61,1.61,0,0,0-1.16.41,27.56,27.56,0,0,0-7.64,10.86,22.92,22.92,0,0,0-.71,2.23l0,.06a25.88,25.88,0,0,0-.55,10.24,32.47,32.47,0,0,0,.79,3.77l-9.36-9.37c-.16-1-.35-1.92-.56-2.84-3.18-13.84-12.13-21.87-26.64-23.91h-.19a1.58,1.58,0,0,0-1.16.46,1.6,1.6,0,0,0-.48,1.15,1.21,1.21,0,0,0,0,.19,48.21,48.21,0,0,0,1.54,7.63c2.44,8.29,6.77,12.89,11.37,15.55a29.48,29.48,0,0,0,9,3.23c1.4.29,2.71.49,3.88.67l.17,0,.82.13,9.36,9.36a30,30,0,0,0-3.76-.79c-6.21-.88-15.31-.06-23.39,8.92a1.6,1.6,0,0,0,.42,2.48q8.21,4.51,15.57,4.52c6.59,0,12.65-2.73,18.12-8.17l18.84,18.84a33.54,33.54,0,0,0-12.13-1.48c-8.47.66-15.87,5.42-22,14.13a1.61,1.61,0,0,0-.23,1.38,1.58,1.58,0,0,0,.94,1,40.71,40.71,0,0,0,15.3,3.29C180.81,285.91,189,281.84,195.87,273.73Z"/><path class="cls-4" d="M160.09,266.38a1.6,1.6,0,0,0-1.61-1.58h0l-10.6.14a1.6,1.6,0,0,0,0,3.2h0l10.6-.13A1.62,1.62,0,0,0,160.09,266.38Z"/><path class="cls-4" d="M148.93,286.22a1.61,1.61,0,0,0-1.08,2l3,10.16a1.59,1.59,0,0,0,1.53,1.15,1.47,1.47,0,0,0,.46-.07,1.6,1.6,0,0,0,1.08-2l-3-10.17A1.61,1.61,0,0,0,148.93,286.22Z"/><path class="cls-4" d="M232.28,266.52a1.6,1.6,0,0,0-1.08,2l3,10.17a1.59,1.59,0,0,0,1.53,1.14,1.82,1.82,0,0,0,.46-.06,1.61,1.61,0,0,0,1.08-2l-3-10.16A1.61,1.61,0,0,0,232.28,266.52Z"/><path class="cls-4" d="M207.19,299.24a1.59,1.59,0,0,0,1.53,1.15,1.47,1.47,0,0,0,.46-.07,1.6,1.6,0,0,0,1.08-2l-3-10.16a1.61,1.61,0,0,0-3.08.91Z"/><path class="cls-4" d="M248.8,327a1.6,1.6,0,0,0-1.68-1.51l-10.59.57a1.61,1.61,0,0,0,.08,3.21h.09l10.59-.58A1.6,1.6,0,0,0,248.8,327Z"/><path class="cls-4" d="M189.34,239.35a1.59,1.59,0,0,0,1.6-1.58l.14-10.6a1.62,1.62,0,0,0-1.59-1.63h0a1.61,1.61,0,0,0-1.6,1.59l-.13,10.6a1.59,1.59,0,0,0,1.58,1.62Z"/><path class="cls-4" d="M259,312.49a1.59,1.59,0,0,0-.39-1.34c-8.08-9-17.18-9.81-23.39-8.92a30.13,30.13,0,0,0-3.77.79l9.36-9.36c15.59-2.57,24.59-11.72,26.75-27.21a1.59,1.59,0,0,0-1.78-1.81c-23.59,2.9-25.86,17.77-27.08,25.76q-.07.51-.15,1l-9.36,9.36A31.86,31.86,0,0,0,230,297c.88-6.21.06-15.31-8.92-23.4a1.62,1.62,0,0,0-2.48.42c-7.07,12.83-5.83,24.16,3.65,33.69l-18.84,18.85a33.6,33.6,0,0,0,1.48-12.14c-.67-8.46-5.42-15.87-14.13-22a1.6,1.6,0,0,0-2.41.7c-6.42,15.79-3.43,29.11,8.89,39.62l-6.77,6.77a1.61,1.61,0,0,0,1.13,2.74,1.64,1.64,0,0,0,1.14-.47l6.77-6.78c6.92,8.12,15,12.19,24.31,12.19a40.75,40.75,0,0,0,15.3-3.29,1.6,1.6,0,0,0,.71-2.41c-6.15-8.72-13.55-13.47-22-14.14a33.51,33.51,0,0,0-12.13,1.49L224.47,310c5.47,5.45,11.53,8.17,18.12,8.17q7.35,0,15.57-4.52A1.58,1.58,0,0,0,259,312.49Z"/><path class="cls-4" d="M162.22,329.24a31.83,31.83,0,0,0,10.47-1.93,1.59,1.59,0,0,0,.92-.84l.14,0a1.6,1.6,0,0,0,1-.88c5.92-13.12,2.85-24.55-9.13-34a1.61,1.61,0,0,0-2.45.58c-4.26,9.12-3,16.68-.63,22.06-5.15-2.9-12.61-4.83-22.13-1.36a1.61,1.61,0,0,0-.79,2.39C145.73,324.56,153.29,329.24,162.22,329.24Z"/><path class="cls-4" d="M222.14,241.73a1.64,1.64,0,0,0,.73-.18,1.59,1.59,0,0,0,.69-2.15L219,230.5a1.6,1.6,0,1,0-2.85,1.46l4.55,8.9A1.6,1.6,0,0,0,222.14,241.73Z"/><path class="cls-4" d="M253,253.85c1.11-14.35-5.67-24.06-20.14-28.85a1.64,1.64,0,0,0-1.38.18,1.6,1.6,0,0,0-.72,1.2c-.89,9.85,2.69,16.48,6.69,20.73-5.74-1-13.19-.22-20.84,5.92a1.61,1.61,0,0,0,0,2.52q9.27,7.26,18.36,7.26c5.7,0,11.32-2.15,16.82-6.45a1.61,1.61,0,0,0,.61-1.2,1.21,1.21,0,0,0,0-.19A1.58,1.58,0,0,0,253,253.85Z"/><path class="cls-4" d="M195.87,399.58l6.77,6.77a1.6,1.6,0,0,0,1.14.47,1.56,1.56,0,0,0,1.13-.47,1.59,1.59,0,0,0,0-2.26l-6.77-6.77c12.32-10.51,15.31-23.83,8.89-39.62a1.57,1.57,0,0,0-1-.93,1.61,1.61,0,0,0-1.38.22c-8.71,6.15-13.46,13.56-14.13,22A33.6,33.6,0,0,0,192,391.15L173.12,372.3c9.49-9.53,10.73-20.86,3.66-33.69a1.6,1.6,0,0,0-2.48-.42c-9,8.08-9.8,17.18-8.92,23.39a31.62,31.62,0,0,0,.79,3.77L156.81,356c-.16-1-.35-1.92-.56-2.85-3.18-13.83-12.13-21.87-26.64-23.9l-.19,0a1.62,1.62,0,0,0-1.16.46,1.6,1.6,0,0,0-.47,1.34c1.64,13.28,7.06,19.8,12.91,23.18a32.33,32.33,0,0,0,11.22,3.65l1.64.25,1,.15,9.36,9.36a30,30,0,0,0-3.76-.78c-6.21-.89-15.31-.06-23.39,8.91a1.61,1.61,0,0,0-.39,1.34,1.58,1.58,0,0,0,.81,1.14q8.21,4.51,15.57,4.52c6.59,0,12.65-2.73,18.12-8.17l18.84,18.84a33.54,33.54,0,0,0-12.13-1.48c-8.47.67-15.87,5.42-22,14.14a1.59,1.59,0,0,0-.23,1.37,1.62,1.62,0,0,0,.94,1,40.69,40.69,0,0,0,15.3,3.28C180.81,411.76,189,407.69,195.87,399.58Z"/><path class="cls-4" d="M160.09,392.24a1.6,1.6,0,0,0-1.61-1.58h0l-10.6.13a1.61,1.61,0,0,0,0,3.21h0l10.6-.14A1.61,1.61,0,0,0,160.09,392.24Z"/><path class="cls-4" d="M148.93,412.08a1.6,1.6,0,0,0-1.08,2l3,10.17a1.59,1.59,0,0,0,1.53,1.14,1.82,1.82,0,0,0,.46-.06,1.61,1.61,0,0,0,1.08-2l-3-10.16A1.61,1.61,0,0,0,148.93,412.08Z"/><path class="cls-4" d="M232.28,392.37a1.61,1.61,0,0,0-1.08,2l3,10.16a1.59,1.59,0,0,0,1.53,1.15,1.47,1.47,0,0,0,.46-.07,1.6,1.6,0,0,0,1.08-2l-3-10.17A1.61,1.61,0,0,0,232.28,392.37Z"/><path class="cls-4" d="M207.19,425.1a1.59,1.59,0,0,0,1.53,1.15,1.83,1.83,0,0,0,.46-.07,1.6,1.6,0,0,0,1.08-2l-3-10.17a1.61,1.61,0,0,0-3.08.91Z"/><path class="cls-4" d="M189.34,365.21a1.59,1.59,0,0,0,1.6-1.58l.14-10.61a1.61,1.61,0,0,0-1.59-1.62h0a1.6,1.6,0,0,0-1.6,1.58l-.13,10.61a1.59,1.59,0,0,0,1.58,1.62Z"/><path class="cls-4" d="M162.22,455.09a31.57,31.57,0,0,0,10.47-1.93,1.57,1.57,0,0,0,.92-.83l.14,0a1.6,1.6,0,0,0,1-.88c5.92-13.13,2.85-24.56-9.13-34a1.57,1.57,0,0,0-1.37-.3,1.62,1.62,0,0,0-1.08.88c-4.26,9.12-3,16.68-.63,22.05-5.15-2.89-12.61-4.82-22.13-1.35a1.6,1.6,0,0,0-.79,2.38C145.73,450.41,153.29,455.09,162.22,455.09Z"/><path class="cls-4" d="M217.76,453.19a33.6,33.6,0,0,0-12.14,1.48l18.85-18.84c5.47,5.44,11.53,8.17,18.12,8.17q7.35,0,15.57-4.52a1.6,1.6,0,0,0,.42-2.48c-8.08-9-17.18-9.8-23.39-8.92a32,32,0,0,0-3.77.79l9.36-9.36c15.59-2.57,24.59-11.72,26.75-27.2a1.6,1.6,0,0,0-1.78-1.82c-23.59,2.91-25.86,17.77-27.08,25.76q-.07.51-.15,1l-9.36,9.36a31.86,31.86,0,0,0,.79-3.76c.88-6.21.06-15.31-8.92-23.39a1.6,1.6,0,0,0-2.48.42c-7.07,12.83-5.83,24.15,3.65,33.69L203.36,452.4a33.54,33.54,0,0,0,1.48-12.13c-.67-8.47-5.42-15.88-14.13-22a1.61,1.61,0,0,0-1.38-.23,1.58,1.58,0,0,0-1,.94c-6.42,15.78-3.43,29.1,8.89,39.61l-6.77,6.77a1.61,1.61,0,0,0,1.13,2.74,1.64,1.64,0,0,0,1.14-.47l6.77-6.77c6.92,8.11,15,12.18,24.31,12.18a40.75,40.75,0,0,0,15.3-3.29,1.58,1.58,0,0,0,.94-1,1.65,1.65,0,0,0-.23-1.38C233.63,458.61,226.23,453.86,217.76,453.19Z"/><path class="cls-4" d="M222.14,367.58a1.62,1.62,0,0,0,.73-.17,1.6,1.6,0,0,0,.69-2.16l-4.55-8.9a1.61,1.61,0,0,0-2.16-.69,1.59,1.59,0,0,0-.69,2.16l4.55,8.89A1.58,1.58,0,0,0,222.14,367.58Z"/><path class="cls-4" d="M253,379.71c1.11-14.36-5.67-24.06-20.14-28.85a1.57,1.57,0,0,0-1.38.18,1.6,1.6,0,0,0-.72,1.19c-.89,9.85,2.69,16.49,6.69,20.74-5.74-1-13.19-.23-20.84,5.92a1.62,1.62,0,0,0-.6,1.26,1.6,1.6,0,0,0,.61,1.25q9.27,7.26,18.36,7.27c5.7,0,11.32-2.16,16.82-6.46a1.61,1.61,0,0,0,.61-1.2,1.08,1.08,0,0,0,0-.18A1.6,1.6,0,0,0,253,379.71Z"/><path class="cls-4" d="M3.56-48.34a1.58,1.58,0,0,0-1.16.46,1.61,1.61,0,0,0-.46,1.34c2.9,23.6,17.77,25.86,25.76,27.08l1,.15,9.36,9.36a30,30,0,0,0-3.76-.79l-.75-.09c-6.18-.72-14.88.38-22.64,9a1.57,1.57,0,0,0-.39,1.34,1.4,1.4,0,0,0,.1.35,1.58,1.58,0,0,0,.7.79c1.06.58,2.12,1.11,3.16,1.58A30,30,0,0,0,26.88,5.18h0a22.74,22.74,0,0,0,8.91-1.8A29,29,0,0,0,45-3L63.85,15.85a33.6,33.6,0,0,0-12.14-1.48c-8.46.66-15.87,5.42-22,14.13a1.6,1.6,0,0,0,.7,2.41A40.75,40.75,0,0,0,45.7,34.2C55,34.2,63.1,30.13,70,22l6.77,6.77a1.6,1.6,0,0,0,1.13.47,1.64,1.64,0,0,0,1.14-.47,1.62,1.62,0,0,0,0-2.27l-6.78-6.77C84.6,9.24,87.6-4.08,81.18-19.86a1.62,1.62,0,0,0-1-.94,1.59,1.59,0,0,0-1.37.23C70.06-14.43,65.3-7,64.63,1.45a33.76,33.76,0,0,0,1.48,12.13L47.27-5.26C56.76-14.8,58-26.12,50.92-38.95a1.58,1.58,0,0,0-1.13-.81,1.59,1.59,0,0,0-1.34.39c-9,8.08-9.81,17.18-8.92,23.39a30.52,30.52,0,0,0,.79,3.77L31-21.58c-.08-.48-.17-1-.26-1.44C27.81-37.71,18.75-46.22,3.75-48.33Z"/><path class="cls-4" d="M34.23,14.68a1.61,1.61,0,0,0-1.6-1.59h0L22,13.23a1.6,1.6,0,0,0,0,3.2h0l10.61-.13A1.6,1.6,0,0,0,34.23,14.68Z"/><path class="cls-4" d="M23.08,34.51a1.61,1.61,0,0,0-1.08,2l3,10.16a1.61,1.61,0,0,0,1.54,1.15,1.51,1.51,0,0,0,.46-.07,1.61,1.61,0,0,0,1.08-2l-3-10.17A1.6,1.6,0,0,0,23.08,34.51Z"/><path class="cls-4" d="M106.43,14.81a1.6,1.6,0,0,0-1.08,2l3,10.17a1.62,1.62,0,0,0,1.54,1.15,1.9,1.9,0,0,0,.46-.07,1.6,1.6,0,0,0,1.07-2l-3-10.16A1.6,1.6,0,0,0,106.43,14.81Z"/><path class="cls-4" d="M82.87,48.68a1.88,1.88,0,0,0,.46-.06,1.61,1.61,0,0,0,1.08-2l-3-10.16a1.6,1.6,0,0,0-3.07.91l3,10.17A1.61,1.61,0,0,0,82.87,48.68Z"/><path class="cls-4" d="M123,75.26a1.61,1.61,0,0,0-1.69-1.52l-10.59.57a1.61,1.61,0,0,0,.09,3.21h.09l10.59-.58A1.6,1.6,0,0,0,123,75.26Z"/><path class="cls-4" d="M13.6,62.15a1.62,1.62,0,0,0,.18,1.39c6.09,9.31,13.66,14,22.59,14A31.92,31.92,0,0,0,46.84,75.6a1.59,1.59,0,0,0,.92-.84.61.61,0,0,0,.13,0,1.59,1.59,0,0,0,1-.88c5.92-13.12,2.84-24.55-9.14-34a1.62,1.62,0,0,0-1.36-.3,1.6,1.6,0,0,0-1.08.88c-4.26,9.12-3,16.68-.63,22.06-5.15-2.9-12.62-4.83-22.14-1.36A1.63,1.63,0,0,0,13.6,62.15Z"/><path class="cls-4" d="M64.85,40.69a1.56,1.56,0,0,0-1.37-.23,1.63,1.63,0,0,0-1,.93C56,57.18,59,70.5,71.34,81l-6.78,6.77a1.62,1.62,0,0,0,0,2.27,1.64,1.64,0,0,0,1.14.47,1.6,1.6,0,0,0,1.13-.47l6.77-6.78c6.92,8.12,15.06,12.19,24.32,12.19a40.75,40.75,0,0,0,15.3-3.29,1.63,1.63,0,0,0,.93-1,1.56,1.56,0,0,0-.23-1.37c-6.14-8.71-13.55-13.47-22-14.14A33.79,33.79,0,0,0,79.77,77.1L98.61,58.26c5.47,5.45,11.53,8.17,18.13,8.17q7.35,0,15.57-4.52a1.59,1.59,0,0,0,.8-1.13,1.56,1.56,0,0,0-.39-1.34c-8.08-9-17.18-9.81-23.39-8.92a30,30,0,0,0-3.76.79L114.93,42c15.58-2.57,24.58-11.73,26.75-27.21a1.64,1.64,0,0,0-.44-1.35,1.59,1.59,0,0,0-1.34-.46C116.3,15.83,114,30.7,112.82,38.69c-.06.34-.11.67-.16,1L103.3,49a30,30,0,0,0,.79-3.76c.89-6.21.06-15.31-8.92-23.39a1.6,1.6,0,0,0-2.47.41C85.63,35.13,86.86,46.46,96.35,56L77.51,74.84A33.82,33.82,0,0,0,79,62.7C78.32,54.24,73.56,46.83,64.85,40.69Z"/><path class="cls-4" d="M139.85,47.82a1.61,1.61,0,0,0,0-3.21l-10.61-.13a1.59,1.59,0,0,0-1.62,1.58,1.6,1.6,0,0,0,1.58,1.62l10.61.14Z"/><path class="cls-4" d="M90.79,1.33a1.59,1.59,0,0,0-.6,1.25,1.64,1.64,0,0,0,.62,1.26C97,8.68,103.12,11.1,109.17,11.1c5.69,0,11.31-2.15,16.81-6.45a1.59,1.59,0,0,0,.62-1.2,1.21,1.21,0,0,0,0-.19,1.59,1.59,0,0,0,.6-1.12c1.1-14.35-5.67-24.06-20.15-28.85a1.61,1.61,0,0,0-1.38.19,1.59,1.59,0,0,0-.72,1.19c-.89,9.85,2.69,16.49,6.7,20.73C105.9-5.55,98.45-4.82,90.79,1.33Z"/><path class="cls-4" d="M129.65,112.42l10.6-.14a1.6,1.6,0,1,0,0-3.2h0l-10.6.13a1.61,1.61,0,0,0,0,3.21Z"/><path class="cls-4" d="M52.15,89.29c-.38-.79-.78-1.58-1.23-2.39a1.57,1.57,0,0,0-1.13-.8l-.19,0a1.56,1.56,0,0,0-1.15.4c-7.3,6.57-9.21,13.81-9.2,19.62a27.56,27.56,0,0,0,.28,3.77l.09.62a32,32,0,0,0,.7,3.15L31,104.28c-.08-.49-.17-1-.26-1.44C27.81,88.14,18.75,79.63,3.75,77.53l-.19,0A1.62,1.62,0,0,0,2.4,78a1.64,1.64,0,0,0-.48,1.16,1.1,1.1,0,0,0,0,.18,47.38,47.38,0,0,0,.89,5.15c2.47,10.84,7.91,16.09,13.48,18.82A33,33,0,0,0,25.25,106h.13l2.32.37,1,.16,9.36,9.36a30,30,0,0,0-3.76-.79,25,25,0,0,0-18.44,4.45c-.57.41-1.14.85-1.72,1.33l-.26.22c-.48.42-1,.86-1.45,1.33s-1,1-1.52,1.59a1.55,1.55,0,0,0-.39,1.33,1.57,1.57,0,0,0,.8,1.14Q19.52,131,26.88,131h0c.63,0,1.26,0,1.88-.08h.09a22.79,22.79,0,0,0,2.85-.43A26.85,26.85,0,0,0,45,122.86L63.85,141.7a33.6,33.6,0,0,0-12.14-1.48c-8.46.67-15.87,5.42-22,14.14a1.56,1.56,0,0,0-.23,1.37,1.61,1.61,0,0,0,.93,1,40.73,40.73,0,0,0,15.3,3.28C55,160.05,63.1,156,70,147.87l6.77,6.78a1.6,1.6,0,0,0,1.13.47,1.59,1.59,0,0,0,1.6-1.61,1.59,1.59,0,0,0-.46-1.13l-6.78-6.77C84.6,135.1,87.6,121.78,81.18,106a1.61,1.61,0,0,0-1-.93,1.59,1.59,0,0,0-1.37.22c-8.71,6.15-13.47,13.56-14.14,22a33.6,33.6,0,0,0,1.48,12.14L47.27,120.59C56.16,111.66,57.8,101.14,52.15,89.29Z"/><path class="cls-4" d="M34.23,140.53a1.6,1.6,0,0,0-1.6-1.58h0L22,139.08a1.61,1.61,0,0,0,0,3.21h0l10.61-.14A1.6,1.6,0,0,0,34.23,140.53Z"/><path class="cls-4" d="M23.08,160.37a1.6,1.6,0,0,0-1.08,2l3,10.17a1.61,1.61,0,0,0,1.54,1.14,1.88,1.88,0,0,0,.46-.06,1.62,1.62,0,0,0,1.08-2l-3-10.16A1.6,1.6,0,0,0,23.08,160.37Z"/><path class="cls-4" d="M106.43,140.66a1.61,1.61,0,0,0-1.08,2l3,10.16a1.61,1.61,0,0,0,1.54,1.15,1.51,1.51,0,0,0,.46-.07,1.59,1.59,0,0,0,1.07-2l-3-10.17A1.6,1.6,0,0,0,106.43,140.66Z"/><path class="cls-4" d="M82.87,174.54a1.51,1.51,0,0,0,.46-.07,1.6,1.6,0,0,0,1.08-2l-3-10.17a1.6,1.6,0,0,0-3.07.91l3,10.17A1.61,1.61,0,0,0,82.87,174.54Z"/><path class="cls-4" d="M123,201.11a1.62,1.62,0,0,0-1.69-1.52l-10.59.58a1.6,1.6,0,0,0,.09,3.2h.09l10.59-.57A1.61,1.61,0,0,0,123,201.11Z"/><path class="cls-4" d="M63.62,99.69a1.59,1.59,0,0,0-1.6,1.58l-.14,10.61a1.6,1.6,0,0,0,1.58,1.62h0a1.6,1.6,0,0,0,1.6-1.58l.13-10.61a1.6,1.6,0,0,0-1.58-1.62Z"/><path class="cls-4" d="M133.11,186.63a1.58,1.58,0,0,0-.39-1.34c-8.08-9-17.18-9.8-23.39-8.92a31.86,31.86,0,0,0-3.76.79l9.36-9.36c15.58-2.57,24.58-11.72,26.75-27.2a1.62,1.62,0,0,0-.44-1.35,1.6,1.6,0,0,0-1.34-.47c-23.6,2.91-25.87,17.78-27.08,25.76-.06.34-.11.67-.16,1l-9.36,9.36a30,30,0,0,0,.79-3.76c.89-6.21.06-15.31-8.92-23.39a1.59,1.59,0,0,0-2.47.42c-7.07,12.83-5.84,24.15,3.65,33.69L77.51,200.69A33.76,33.76,0,0,0,79,188.56c-.67-8.47-5.43-15.88-14.14-22a1.59,1.59,0,0,0-1.37-.23,1.62,1.62,0,0,0-1,.94C56,183,59,196.35,71.33,206.86l-6.77,6.77a1.62,1.62,0,0,0,0,2.27,1.64,1.64,0,0,0,1.14.47,1.6,1.6,0,0,0,1.13-.47l6.77-6.77c6.92,8.11,15.06,12.18,24.32,12.18a40.56,40.56,0,0,0,15.3-3.29,1.6,1.6,0,0,0,.7-2.41c-6.14-8.71-13.55-13.46-22-14.13A33.6,33.6,0,0,0,79.77,203l18.84-18.84c5.47,5.44,11.53,8.17,18.13,8.17q7.35,0,15.57-4.52A1.63,1.63,0,0,0,133.11,186.63Z"/><path class="cls-4" d="M13.6,188a1.61,1.61,0,0,0,.18,1.38c6.09,9.31,13.66,14,22.59,14a31.66,31.66,0,0,0,10.47-1.93,1.57,1.57,0,0,0,.92-.83l.13,0a1.62,1.62,0,0,0,1-.88c5.92-13.13,2.84-24.56-9.14-34a1.62,1.62,0,0,0-1.36-.3,1.58,1.58,0,0,0-1.08.88c-4.26,9.12-3,16.68-.63,22.05-5.15-2.89-12.62-4.82-22.14-1.35A1.6,1.6,0,0,0,13.6,188Z"/><path class="cls-4" d="M93.16,104.64A1.61,1.61,0,0,0,91,104a1.6,1.6,0,0,0-.7,2.15l4.55,8.9a1.61,1.61,0,0,0,1.43.88,1.58,1.58,0,0,0,.73-.18,1.61,1.61,0,0,0,.7-2.16Z"/><path class="cls-4" d="M139.85,173.67a1.6,1.6,0,0,0,0-3.2l-10.61-.14a1.61,1.61,0,0,0,0,3.21l10.61.13Z"/><path class="cls-4" d="M90.79,127.18a1.6,1.6,0,0,0,0,2.51q9.27,7.26,18.36,7.27c5.69,0,11.31-2.15,16.81-6.45a1.61,1.61,0,0,0,.62-1.21,1.09,1.09,0,0,0,0-.18,1.61,1.61,0,0,0,.6-1.12c1.1-14.36-5.67-24.06-20.15-28.85a1.61,1.61,0,0,0-1.38.18,1.63,1.63,0,0,0-.72,1.2c-.89,9.85,2.69,16.48,6.7,20.73C105.9,120.31,98.45,121,90.79,127.18Z"/><path class="cls-4" d="M141.84,236.51a1.61,1.61,0,0,0-1.61-1.58h0l-10.6.14a1.6,1.6,0,1,0,0,3.2h0l10.6-.14A1.6,1.6,0,0,0,141.84,236.51Z"/><path class="cls-4" d="M70,273.73l6.77,6.77a1.6,1.6,0,0,0,1.13.47,1.64,1.64,0,0,0,1.14-.47,1.62,1.62,0,0,0,0-2.27l-6.78-6.77C84.6,261,87.6,247.63,81.18,231.84a1.63,1.63,0,0,0-1-.93,1.59,1.59,0,0,0-1.37.23c-8.71,6.14-13.47,13.55-14.14,22a33.76,33.76,0,0,0,1.48,12.13L47.27,246.45c8.21-8.25,10.24-17.85,6-28.59-.25-.65-.53-1.31-.83-2-.19-.44-.4-.87-.61-1.31q-.45-.92-1-1.83a1.59,1.59,0,0,0-2.47-.42c-7.3,6.56-9.21,13.8-9.2,19.62a27.56,27.56,0,0,0,.28,3.77,30,30,0,0,0,.79,3.76L31,230.13c-.08-.48-.17-1-.26-1.44C27.81,214,18.75,205.49,3.75,203.38H3.56a1.58,1.58,0,0,0-1.16.46A1.6,1.6,0,0,0,1.92,205a1.23,1.23,0,0,0,0,.19,47.11,47.11,0,0,0,1.54,7.63c4,13.55,13,17.24,20,18.72h0l.15,0c1.45.3,2.82.51,4,.7h.09l.9.14,9.36,9.36a30,30,0,0,0-3.76-.79,27.1,27.1,0,0,0-6.55-.13c-.41,0-.82.1-1.23.16l-.22,0c-4.9.81-10.34,3.24-15.39,8.85a1.57,1.57,0,0,0-.39,1.34,1.6,1.6,0,0,0,.8,1.14q8.21,4.51,15.57,4.52h0a22.58,22.58,0,0,0,2.61-.15h0c.29,0,.57-.07.85-.12,5.26-.79,10.16-3.43,14.66-7.9l18.84,18.84a33.57,33.57,0,0,0-12.13-1.48c-8.47.66-15.88,5.42-22,14.13a1.6,1.6,0,0,0,.7,2.41,40.75,40.75,0,0,0,15.3,3.29C55,285.91,63.1,281.84,70,273.73Z"/><path class="cls-4" d="M34.23,266.38a1.6,1.6,0,0,0-1.6-1.58h0L22,264.94a1.6,1.6,0,0,0,0,3.2h0L32.65,268A1.61,1.61,0,0,0,34.23,266.38Z"/><path class="cls-4" d="M23.08,286.22a1.61,1.61,0,0,0-1.08,2l3,10.16a1.61,1.61,0,0,0,1.54,1.15,1.51,1.51,0,0,0,.46-.07,1.61,1.61,0,0,0,1.08-2l-3-10.17A1.6,1.6,0,0,0,23.08,286.22Z"/><path class="cls-4" d="M106.43,266.52a1.6,1.6,0,0,0-1.08,2l3,10.17a1.61,1.61,0,0,0,1.54,1.14,1.88,1.88,0,0,0,.46-.06,1.6,1.6,0,0,0,1.07-2l-3-10.16A1.6,1.6,0,0,0,106.43,266.52Z"/><path class="cls-4" d="M81.33,299.24a1.61,1.61,0,0,0,1.54,1.15,1.51,1.51,0,0,0,.46-.07,1.6,1.6,0,0,0,1.08-2l-3-10.16a1.6,1.6,0,0,0-3.07.91Z"/><path class="cls-4" d="M123,327a1.61,1.61,0,0,0-1.69-1.51l-10.59.57a1.61,1.61,0,0,0,.09,3.21h.09l10.59-.58A1.6,1.6,0,0,0,123,327Z"/><path class="cls-4" d="M63.49,239.35a1.6,1.6,0,0,0,1.6-1.58l.13-10.6a1.61,1.61,0,0,0-1.58-1.63h0a1.6,1.6,0,0,0-1.6,1.59l-.14,10.6a1.6,1.6,0,0,0,1.58,1.62Z"/><path class="cls-4" d="M16,236.51a1.6,1.6,0,0,0-1.6-1.58h0l-10.61.14a1.6,1.6,0,0,0,0,3.2h0l10.61-.14A1.6,1.6,0,0,0,16,236.51Z"/><path class="cls-4" d="M133.11,312.49a1.56,1.56,0,0,0-.39-1.34c-8.08-9-17.18-9.81-23.39-8.92a30,30,0,0,0-3.76.79l9.36-9.36c15.58-2.57,24.58-11.72,26.75-27.21a1.64,1.64,0,0,0-.44-1.35,1.63,1.63,0,0,0-1.34-.46c-23.6,2.9-25.87,17.77-27.08,25.76-.06.34-.11.67-.16,1l-9.36,9.36a30,30,0,0,0,.79-3.76c.89-6.21.06-15.31-8.92-23.4a1.58,1.58,0,0,0-1.34-.38,1.57,1.57,0,0,0-1.13.8c-7.07,12.83-5.84,24.16,3.65,33.69L77.51,326.55A33.6,33.6,0,0,0,79,314.41c-.67-8.46-5.43-15.87-14.14-22a1.56,1.56,0,0,0-1.37-.23,1.61,1.61,0,0,0-1,.93C56,308.89,59,322.21,71.33,332.72l-6.77,6.77a1.62,1.62,0,0,0,0,2.27,1.64,1.64,0,0,0,1.14.47,1.6,1.6,0,0,0,1.13-.47L73.6,335c6.92,8.11,15.06,12.19,24.32,12.19a40.79,40.79,0,0,0,15.3-3.29,1.63,1.63,0,0,0,.93-1,1.56,1.56,0,0,0-.23-1.37c-6.14-8.72-13.55-13.47-22-14.14a33.54,33.54,0,0,0-12.13,1.49L98.61,310c5.47,5.45,11.53,8.17,18.13,8.17q7.35,0,15.57-4.52A1.59,1.59,0,0,0,133.11,312.49Z"/><path class="cls-4" d="M36.37,329.24a31.92,31.92,0,0,0,10.47-1.93,1.59,1.59,0,0,0,.92-.84.61.61,0,0,0,.13,0,1.62,1.62,0,0,0,1-.88c5.92-13.12,2.84-24.55-9.14-34a1.62,1.62,0,0,0-1.36-.3,1.6,1.6,0,0,0-1.08.88c-4.26,9.12-3,16.68-.63,22.06-5.15-2.9-12.62-4.83-22.14-1.36a1.61,1.61,0,0,0-.79,2.39C19.87,324.56,27.44,329.24,36.37,329.24Z"/><path class="cls-4" d="M96.28,241.73a1.58,1.58,0,0,0,.73-.18,1.6,1.6,0,0,0,.7-2.15l-4.55-8.9A1.61,1.61,0,1,0,90.3,232l4.55,8.9A1.62,1.62,0,0,0,96.28,241.73Z"/><path class="cls-4" d="M139.85,299.53a1.61,1.61,0,0,0,0-3.21l-10.61-.13h0a1.6,1.6,0,0,0,0,3.2l10.61.14Z"/><path class="cls-4" d="M127.19,253.85c1.1-14.35-5.67-24.06-20.15-28.85a1.6,1.6,0,0,0-2.1,1.38c-.89,9.85,2.69,16.48,6.7,20.73-5.74-1-13.19-.22-20.85,5.92a1.62,1.62,0,0,0-.6,1.26,1.64,1.64,0,0,0,.62,1.26q9.27,7.26,18.36,7.26c5.69,0,11.31-2.15,16.81-6.45a1.59,1.59,0,0,0,.62-1.2,1.21,1.21,0,0,0,0-.19A1.59,1.59,0,0,0,127.19,253.85Z"/><path class="cls-4" d="M141.84,362.37a1.61,1.61,0,0,0-1.63-1.58l-10.6.13a1.61,1.61,0,0,0,0,3.21h0l10.6-.14A1.61,1.61,0,0,0,141.84,362.37Z"/><path class="cls-4" d="M70,399.58l6.77,6.77a1.56,1.56,0,0,0,1.13.47,1.6,1.6,0,0,0,1.14-2.73l-6.78-6.77c12.32-10.51,15.32-23.83,8.9-39.62a1.61,1.61,0,0,0-1-.93,1.59,1.59,0,0,0-1.37.22c-8.71,6.15-13.47,13.56-14.14,22a33.82,33.82,0,0,0,1.48,12.14L47.27,372.3c9.49-9.53,10.72-20.86,3.65-33.69a1.61,1.61,0,0,0-1.13-.81,1.62,1.62,0,0,0-1.34.39c-9,8.08-9.81,17.18-8.92,23.39a29.76,29.76,0,0,0,.79,3.77L31,356c-.08-.49-.17-1-.26-1.44-2.89-14.7-11.95-23.21-26.95-25.31l-.19,0A1.59,1.59,0,0,0,1.94,331c2.9,23.6,17.77,25.87,25.76,27.08l1,.15,9.36,9.36a30,30,0,0,0-3.76-.78,26.58,26.58,0,0,0-6.55-.14c-5.25.56-11.29,2.88-16.84,9.05a1.57,1.57,0,0,0-.41,1.16,1.1,1.1,0,0,0,0,.18,1.59,1.59,0,0,0,.8,1.14l1,.55a31.58,31.58,0,0,0,14.54,4c6.6,0,12.66-2.73,18.13-8.17l18.83,18.84a33.49,33.49,0,0,0-12.12-1.48c-8.47.67-15.88,5.42-22,14.14a1.56,1.56,0,0,0-.23,1.37,1.61,1.61,0,0,0,.93,1,40.73,40.73,0,0,0,15.3,3.28C55,411.76,63.1,407.69,70,399.58Z"/><path class="cls-4" d="M34.23,392.24a1.6,1.6,0,0,0-1.6-1.58h0L22,390.79A1.61,1.61,0,0,0,22,394h0l10.61-.14A1.6,1.6,0,0,0,34.23,392.24Z"/><path class="cls-4" d="M23.08,412.08a1.6,1.6,0,0,0-1.08,2l3,10.17a1.61,1.61,0,0,0,1.54,1.14,1.88,1.88,0,0,0,.46-.06,1.62,1.62,0,0,0,1.08-2l-3-10.16A1.6,1.6,0,0,0,23.08,412.08Z"/><path class="cls-4" d="M106.43,392.37a1.61,1.61,0,0,0-1.08,2l3,10.16a1.61,1.61,0,0,0,1.54,1.15,1.51,1.51,0,0,0,.46-.07,1.59,1.59,0,0,0,1.07-2l-3-10.17A1.6,1.6,0,0,0,106.43,392.37Z"/><path class="cls-4" d="M81.33,425.1a1.61,1.61,0,0,0,1.54,1.15,1.9,1.9,0,0,0,.46-.07,1.6,1.6,0,0,0,1.08-2l-3-10.17a1.6,1.6,0,0,0-3.07.91Z"/><path class="cls-4" d="M63.49,365.21a1.6,1.6,0,0,0,1.6-1.58L65.22,353a1.6,1.6,0,0,0-1.58-1.62h0A1.59,1.59,0,0,0,62,353l-.14,10.61a1.6,1.6,0,0,0,1.58,1.62Z"/><path class="cls-4" d="M16,362.37a1.6,1.6,0,0,0-1.62-1.58h0l-10.61.13a1.61,1.61,0,0,0,0,3.21h0L14.4,364A1.6,1.6,0,0,0,16,362.37Z"/><path class="cls-4" d="M36.37,455.09a31.66,31.66,0,0,0,10.47-1.93,1.57,1.57,0,0,0,.92-.83l.13,0a1.62,1.62,0,0,0,1-.88c5.92-13.13,2.84-24.56-9.14-34a1.55,1.55,0,0,0-1.36-.3,1.58,1.58,0,0,0-1.08.88c-4.26,9.12-3,16.68-.63,22.05-5.15-2.89-12.62-4.82-22.14-1.35a1.6,1.6,0,0,0-.79,2.38C19.87,450.41,27.44,455.09,36.37,455.09Z"/><path class="cls-4" d="M91.91,453.19a33.57,33.57,0,0,0-12.14,1.48l18.84-18.84c5.47,5.44,11.53,8.17,18.13,8.17q7.35,0,15.57-4.52a1.63,1.63,0,0,0,.8-1.14,1.57,1.57,0,0,0-.39-1.34c-8.08-9-17.18-9.8-23.39-8.92a31.86,31.86,0,0,0-3.76.79l9.36-9.36c15.58-2.57,24.58-11.72,26.75-27.2a1.62,1.62,0,0,0-.44-1.35,1.6,1.6,0,0,0-1.34-.47c-23.6,2.91-25.87,17.77-27.08,25.76-.06.34-.11.67-.16,1l-9.36,9.36a30,30,0,0,0,.79-3.76c.89-6.21.06-15.31-8.92-23.39a1.59,1.59,0,0,0-2.47.42c-7.07,12.83-5.84,24.15,3.65,33.69L77.51,452.4A33.54,33.54,0,0,0,79,440.27c-.67-8.47-5.43-15.88-14.14-22a1.59,1.59,0,0,0-1.37-.23,1.62,1.62,0,0,0-1,.94C56,434.74,59,448.06,71.33,458.57l-6.77,6.77a1.62,1.62,0,0,0,0,2.27,1.64,1.64,0,0,0,1.14.47,1.6,1.6,0,0,0,1.13-.47l6.77-6.77C80.52,469,88.66,473,97.92,473a40.75,40.75,0,0,0,15.3-3.29,1.6,1.6,0,0,0,.7-2.41C107.78,458.61,100.37,453.86,91.91,453.19Z"/><path class="cls-4" d="M96.28,367.58a1.57,1.57,0,0,0,.73-.17,1.61,1.61,0,0,0,.7-2.16l-4.55-8.9a1.61,1.61,0,0,0-2.86,1.47l4.55,8.89A1.6,1.6,0,0,0,96.28,367.58Z"/><path class="cls-4" d="M139.85,425.38a1.61,1.61,0,0,0,0-3.21L129.26,422h0a1.61,1.61,0,0,0,0,3.21l10.61.13Z"/><path class="cls-4" d="M127.19,379.71c1.1-14.36-5.67-24.06-20.15-28.85a1.57,1.57,0,0,0-1.38.18,1.63,1.63,0,0,0-.72,1.19c-.89,9.85,2.69,16.49,6.7,20.74-5.74-1-13.19-.23-20.85,5.92a1.6,1.6,0,0,0,0,2.51q9.27,7.26,18.36,7.27c5.69,0,11.31-2.16,16.81-6.46a1.59,1.59,0,0,0,.62-1.2,1.09,1.09,0,0,0,0-.18A1.61,1.61,0,0,0,127.19,379.71Z"/><path class="cls-4" d="M-61,40.69a1.58,1.58,0,0,0-1.38-.23,1.59,1.59,0,0,0-1,.93C-69.83,57.18-66.84,70.5-54.52,81l-6.77,6.77a1.6,1.6,0,0,0,0,2.27,1.6,1.6,0,0,0,1.13.47A1.64,1.64,0,0,0-59,90.05l6.77-6.78c6.92,8.12,15,12.19,24.31,12.19a40.75,40.75,0,0,0,15.3-3.29,1.62,1.62,0,0,0,.94-1,1.62,1.62,0,0,0-.23-1.37c-6.15-8.71-13.55-13.47-22-14.14A33.73,33.73,0,0,0-46.08,77.1l18.84-18.84c5.47,5.45,11.53,8.17,18.12,8.17q7.35,0,15.57-4.52a1.59,1.59,0,0,0,.42-2.47c-8.08-9-17.18-9.81-23.39-8.92a30.52,30.52,0,0,0-3.77.79L-10.93,42C4.66,39.38,13.66,30.22,15.83,14.74a1.65,1.65,0,0,0-.45-1.35A1.58,1.58,0,0,0,14,12.93C-9.56,15.83-11.82,30.7-13,38.69l-.15,1L-22.55,49a30,30,0,0,0,.79-3.76c.88-6.21.06-15.31-8.92-23.39A1.57,1.57,0,0,0-32,21.5a1.6,1.6,0,0,0-1.14.8C-40.23,35.13-39,46.46-29.51,56L-48.35,74.84a33.57,33.57,0,0,0,1.48-12.13C-47.53,54.24-52.29,46.83-61,40.69Z"/><path class="cls-4" d="M14,47.82a1.61,1.61,0,0,0,0-3.21l-10.6-.13h0a1.6,1.6,0,1,0,0,3.2l10.6.14Z"/><path class="cls-4" d="M-35.06,1.33a1.6,1.6,0,0,0-.6,1.25A1.63,1.63,0,0,0-35,3.84q9.27,7.26,18.36,7.26C-11,11.1-5.37,9,.13,4.65a1.58,1.58,0,0,0,.61-1.2.6.6,0,0,0,0-.19,1.58,1.58,0,0,0,.59-1.12C2.44-12.21-4.34-21.92-18.81-26.71a1.61,1.61,0,0,0-1.38.19,1.56,1.56,0,0,0-.72,1.19c-.89,9.85,2.69,16.49,6.69,20.73C-19.95-5.55-27.41-4.82-35.06,1.33Z"/><path class="cls-4" d="M3.79,112.42l10.61-.14a1.6,1.6,0,0,0,0-3.2h0l-10.61.13a1.61,1.61,0,0,0,0,3.21Z"/><path class="cls-4" d="M7.26,186.63a1.61,1.61,0,0,0-.39-1.34c-8.08-9-17.18-9.8-23.39-8.92a32.47,32.47,0,0,0-3.77.79l9.36-9.36c15.59-2.57,24.59-11.72,26.76-27.2a1.63,1.63,0,0,0-.45-1.35,1.59,1.59,0,0,0-1.34-.47c-23.6,2.91-25.86,17.78-27.08,25.76l-.15,1-9.36,9.36a30,30,0,0,0,.79-3.76c.88-6.21.06-15.31-8.92-23.39a1.6,1.6,0,0,0-1.34-.39,1.62,1.62,0,0,0-1.14.81C-40.23,161-39,172.31-29.51,181.85l-18.84,18.84a33.54,33.54,0,0,0,1.48-12.13c-.66-8.47-5.42-15.88-14.13-22a1.61,1.61,0,0,0-1.38-.23,1.58,1.58,0,0,0-1,.94c-6.42,15.78-3.43,29.1,8.89,39.61l-6.77,6.77a1.6,1.6,0,0,0,0,2.27,1.6,1.6,0,0,0,1.13.47A1.64,1.64,0,0,0-59,215.9l6.77-6.77c6.92,8.11,15,12.18,24.31,12.18A40.56,40.56,0,0,0-12.64,218a1.58,1.58,0,0,0,.94-1,1.65,1.65,0,0,0-.23-1.38c-6.15-8.71-13.55-13.46-22-14.13A33.54,33.54,0,0,0-46.08,203l18.84-18.84c5.47,5.44,11.53,8.17,18.12,8.17q7.35,0,15.57-4.52A1.62,1.62,0,0,0,7.26,186.63Z"/><path class="cls-4" d="M14,173.67a1.6,1.6,0,1,0,0-3.2l-10.6-.14a1.61,1.61,0,1,0,0,3.21l10.6.13Z"/><path class="cls-4" d="M-35.06,127.18a1.62,1.62,0,0,0-.6,1.26,1.6,1.6,0,0,0,.61,1.25Q-25.78,137-16.69,137c5.7,0,11.32-2.15,16.82-6.45a1.6,1.6,0,0,0,.61-1.21.54.54,0,0,0,0-.18A1.6,1.6,0,0,0,1.33,128c1.11-14.36-5.67-24.06-20.14-28.85a1.61,1.61,0,0,0-1.38.18,1.6,1.6,0,0,0-.72,1.2c-.89,9.85,2.69,16.48,6.69,20.73C-19.95,120.31-27.41,121-35.06,127.18Z"/><path class="cls-4" d="M7.26,312.49a1.59,1.59,0,0,0-.39-1.34c-8.08-9-17.18-9.81-23.39-8.92a30.52,30.52,0,0,0-3.77.79l9.36-9.36c15.59-2.57,24.59-11.72,26.76-27.21a1.65,1.65,0,0,0-.45-1.35,1.61,1.61,0,0,0-1.34-.46c-23.6,2.9-25.86,17.77-27.08,25.76q-.08.51-.15,1l-9.36,9.36a30,30,0,0,0,.79-3.76c.88-6.21.06-15.31-8.92-23.4a1.59,1.59,0,0,0-1.34-.38,1.6,1.6,0,0,0-1.14.8c-7.07,12.83-5.83,24.16,3.65,33.69l-18.84,18.85a33.57,33.57,0,0,0,1.48-12.13c-.66-8.47-5.42-15.88-14.13-22a1.58,1.58,0,0,0-1.38-.23,1.57,1.57,0,0,0-1,.93c-6.42,15.79-3.43,29.11,8.89,39.62l-6.77,6.77a1.6,1.6,0,0,0,0,2.27,1.6,1.6,0,0,0,1.13.47,1.64,1.64,0,0,0,1.14-.47l6.77-6.78c6.92,8.11,15,12.19,24.31,12.19a40.75,40.75,0,0,0,15.3-3.29,1.62,1.62,0,0,0,.94-1,1.62,1.62,0,0,0-.23-1.37c-6.15-8.72-13.55-13.47-22-14.14a33.51,33.51,0,0,0-12.13,1.49L-27.24,310c5.47,5.45,11.53,8.17,18.12,8.17q7.35,0,15.57-4.52A1.58,1.58,0,0,0,7.26,312.49Z"/><path class="cls-4" d="M14,299.53a1.61,1.61,0,0,0,0-3.21l-10.6-.13h0a1.6,1.6,0,1,0,0,3.2l10.6.14Z"/><path class="cls-4" d="M1.33,253.85C2.44,239.5-4.34,229.79-18.81,225a1.64,1.64,0,0,0-1.38.18,1.6,1.6,0,0,0-.72,1.2c-.89,9.85,2.69,16.48,6.69,20.73-5.73-1-13.19-.22-20.84,5.92a1.62,1.62,0,0,0-.6,1.26,1.63,1.63,0,0,0,.61,1.26q9.27,7.26,18.36,7.26c5.7,0,11.32-2.15,16.82-6.45a1.58,1.58,0,0,0,.61-1.2.61.61,0,0,0,0-.19A1.58,1.58,0,0,0,1.33,253.85Z"/><path class="cls-4" d="M-33.95,453.19a33.51,33.51,0,0,0-12.13,1.48l18.84-18.84c5.47,5.44,11.53,8.17,18.12,8.17q7.35,0,15.57-4.52A1.6,1.6,0,0,0,6.87,437c-8.08-9-17.18-9.8-23.39-8.92a32.47,32.47,0,0,0-3.77.79l9.36-9.36c15.59-2.57,24.59-11.72,26.76-27.2a1.63,1.63,0,0,0-.45-1.35,1.59,1.59,0,0,0-1.34-.47C-9.55,393.4-11.82,408.26-13,416.25l-.15,1-9.36,9.36a30,30,0,0,0,.79-3.76c.88-6.21.06-15.31-8.92-23.39a1.6,1.6,0,0,0-1.34-.39,1.62,1.62,0,0,0-1.14.81C-40.22,412.7-39,424-29.51,433.56L-48.35,452.4a33.54,33.54,0,0,0,1.48-12.13c-.66-8.47-5.42-15.88-14.13-22a1.61,1.61,0,0,0-1.38-.23,1.58,1.58,0,0,0-1,.94c-6.42,15.78-3.43,29.1,8.89,39.61l-6.77,6.77a1.6,1.6,0,0,0,0,2.27,1.6,1.6,0,0,0,1.13.47,1.64,1.64,0,0,0,1.14-.47l6.77-6.77C-45.33,469-37.2,473-27.94,473a40.75,40.75,0,0,0,15.3-3.29,1.58,1.58,0,0,0,.94-1,1.65,1.65,0,0,0-.23-1.38C-18.08,458.61-25.48,453.86-33.95,453.19Z"/><path class="cls-4" d="M14,425.38a1.61,1.61,0,0,0,0-3.21L3.41,422h0a1.61,1.61,0,0,0,0,3.21l10.6.13Z"/><path class="cls-4" d="M1.33,379.71c1.11-14.36-5.67-24.06-20.14-28.85a1.57,1.57,0,0,0-1.38.18,1.6,1.6,0,0,0-.72,1.19c-.89,9.85,2.69,16.49,6.69,20.74-5.74-1-13.19-.23-20.84,5.92a1.62,1.62,0,0,0-.6,1.26A1.6,1.6,0,0,0-35,381.4q9.27,7.26,18.36,7.27c5.7,0,11.32-2.16,16.82-6.46A1.58,1.58,0,0,0,.74,381a.54.54,0,0,0,0-.18A1.6,1.6,0,0,0,1.33,379.71Z"/></g></svg>